<?xml version="1.0" standalone="no"?>
<!DOCTYPE svg PUBLIC "-//W3C//DTD SVG 20010904//EN"
 "http://www.w3.org/TR/2001/REC-SVG-20010904/DTD/svg10.dtd">
<svg version="1.0" xmlns="http://www.w3.org/2000/svg"
 width="1079.000000pt" height="1080.000000pt" viewBox="0 0 1079.000000 1080.000000"
 preserveAspectRatio="xMidYMid meet">

<g transform="translate(0.000000,1080.000000) scale(0.100000,-0.100000)"
fill="#000000" stroke="none">
<path d="M5280 9551 c-30 -5 -39 -13 -62 -61 -15 -30 -27 -63 -28 -72 0 -39
-28 -14 -61 55 -34 71 -34 72 -76 75 l-43 3 0 -155 0 -156 30 0 30 0 0 105 c0
113 10 131 36 65 9 -22 20 -38 24 -35 5 3 6 -4 3 -15 -4 -15 2 -22 22 -30 14
-5 30 -10 35 -10 4 0 20 32 35 70 15 39 31 68 36 64 5 -3 9 -50 9 -105 l0 -99
35 0 36 0 -2 142 c-1 138 -4 169 -18 167 -3 -1 -22 -4 -41 -8z"/>
<path d="M5455 9529 c-9 -13 -2 -20 22 -23 15 -3 18 -11 15 -62 -1 -32 -5 -83
-8 -111 -5 -48 -8 -53 -30 -53 -17 0 -24 -5 -24 -20 0 -16 7 -20 33 -20 17 0
56 -3 85 -6 48 -6 52 -5 52 15 0 14 -6 21 -20 21 -17 0 -20 6 -19 48 1 26 4
76 8 112 5 56 9 65 26 65 34 0 30 32 -6 39 -49 10 -127 7 -134 -5z"/>
<path d="M4618 9511 c-47 -9 -89 -19 -92 -22 -6 -5 37 -286 45 -293 2 -3 24
-1 49 4 25 5 70 14 101 20 50 10 56 13 52 31 -5 17 -11 20 -39 15 -19 -3 -49
-9 -68 -12 -34 -6 -35 -5 -42 33 -3 21 -12 44 -18 52 -8 11 -8 13 1 8 7 -4 42
-2 78 4 49 10 64 16 60 27 -3 7 -5 18 -5 24 0 6 -14 8 -35 4 -19 -3 -51 -9
-70 -12 -35 -6 -35 -6 -35 29 l0 35 70 13 c54 9 70 16 65 26 -3 8 -5 19 -5 24
0 11 -4 11 -112 -10z"/>
<path d="M5745 9508 c-6 -19 -55 -282 -52 -284 10 -9 67 -14 67 -6 0 19 21
167 26 185 10 32 21 18 48 -58 52 -145 61 -162 95 -167 36 -5 31 -19 65 162
13 69 21 128 19 133 -2 4 -17 7 -33 7 -31 0 -32 -2 -48 -115 -4 -27 -12 -50
-17 -50 -6 0 -24 41 -42 90 -17 50 -33 93 -35 96 -2 4 -22 10 -45 14 -32 5
-44 3 -48 -7z"/>
<path d="M4276 9442 c-61 -21 -87 -55 -94 -120 -6 -65 11 -114 54 -152 28 -24
43 -30 83 -30 57 0 114 18 104 33 -4 6 -1 7 6 3 20 -13 49 21 43 49 -2 14 -7
25 -9 25 -3 0 -21 -13 -40 -30 -56 -49 -124 -36 -158 30 -23 45 -19 100 10
134 23 27 28 28 83 24 l59 -4 -7 25 c-5 22 -13 26 -46 28 -21 2 -61 -5 -88
-15z"/>
<path d="M6127 9421 c-4 -15 1 -21 17 -23 27 -4 26 -19 -7 -128 -23 -78 -27
-85 -50 -85 -16 1 -27 -6 -30 -17 -4 -14 4 -20 31 -28 21 -5 58 -16 85 -24 26
-8 47 -10 47 -6 0 5 3 15 6 24 4 10 1 16 -7 16 -31 0 -40 15 -28 46 6 16 19
61 29 99 16 63 20 70 40 67 20 -3 39 11 40 29 0 6 -85 33 -136 44 -26 5 -32 3
-37 -14z"/>
<path d="M3998 9356 c-19 -8 -24 -16 -18 -26 16 -30 52 -142 47 -147 -3 -2
-42 23 -86 57 l-81 62 -44 -18 -43 -18 27 -66 c14 -36 39 -98 55 -138 25 -64
31 -73 49 -68 12 3 24 6 29 6 14 0 6 33 -28 111 -19 44 -35 84 -35 89 0 19 27
9 55 -20 16 -17 35 -28 42 -26 7 3 12 1 10 -3 -1 -5 21 -27 50 -50 52 -42 52
-42 83 -26 36 19 37 14 -26 163 -24 57 -44 107 -44 112 0 15 -14 18 -42 6z"/>
<path d="M6403 9327 c-24 -10 -43 -47 -43 -82 0 -26 43 -74 92 -103 31 -18 42
-47 22 -63 -23 -19 -82 -1 -124 37 -21 19 -40 31 -43 27 -16 -30 -14 -45 5
-63 12 -11 28 -18 36 -15 7 2 11 1 8 -4 -7 -11 76 -41 111 -41 37 0 63 18 57
38 -5 14 -4 15 5 2 10 -13 12 -13 21 0 5 8 10 29 10 46 0 31 -28 62 -105 117
-28 20 -32 39 -10 57 22 18 72 3 115 -36 l38 -34 5 27 c7 35 -4 48 -65 79 -49
25 -96 29 -135 11z"/>
<path d="M6676 9234 c-9 -23 -10 -22 37 -45 23 -12 43 -23 45 -24 1 -1 -20
-49 -48 -105 -27 -57 -50 -109 -50 -116 0 -8 13 -20 28 -28 l28 -14 27 56 c14
32 38 83 51 115 27 62 38 67 88 41 25 -13 32 -14 39 -2 14 22 10 28 -28 44
-21 9 -73 33 -115 55 -86 44 -93 45 -102 23z"/>
<path d="M3543 9163 c-18 -9 -33 -21 -33 -27 0 -6 10 -69 21 -141 12 -71 21
-138 21 -147 -1 -21 0 -21 34 -6 22 10 25 17 21 45 -6 32 -4 35 48 60 l55 27
22 -21 c22 -21 24 -21 57 -4 l33 18 -26 21 c-15 11 -68 59 -117 106 -50 47
-94 86 -98 85 -3 0 -21 -8 -38 -16z m91 -112 l38 -39 -23 -16 c-47 -33 -69
-10 -69 70 0 33 10 30 54 -15z"/>
<path d="M6968 8997 c-27 -46 -48 -88 -48 -95 0 -7 -4 -12 -8 -12 -5 0 -15
-12 -23 -27 -7 -16 -15 -30 -16 -33 -2 -3 10 -13 26 -23 l30 -17 26 45 c43 73
70 59 80 -41 5 -54 11 -73 26 -82 11 -7 25 -10 31 -6 6 4 8 3 5 -3 -4 -6 0
-13 8 -17 19 -7 19 10 0 89 -19 78 -20 75 16 75 37 0 89 48 89 82 -1 30 -25
62 -41 52 -8 -4 -10 -3 -5 4 8 13 -85 77 -125 87 -21 5 -29 -3 -71 -78z m133
-8 c34 -24 38 -58 10 -83 -17 -15 -22 -16 -53 -3 -20 8 -38 24 -41 36 -3 12
-2 19 3 16 4 -3 13 9 20 25 15 36 23 37 61 9z"/>
<path d="M3240 8986 c-25 -13 -44 -29 -42 -36 1 -6 -1 -9 -5 -7 -5 3 -25 -5
-45 -17 l-37 -22 39 -57 c22 -32 40 -59 40 -62 0 -2 20 -33 45 -69 l46 -65 29
17 c17 10 25 21 20 27 -4 5 -18 28 -30 49 -19 36 -20 41 -6 51 12 9 31 6 87
-12 l71 -24 34 23 34 23 -73 24 c-39 13 -73 25 -75 26 -2 2 1 19 6 37 12 45
-5 89 -42 106 -36 16 -44 15 -96 -12z m64 -58 c22 -31 20 -41 -10 -72 -36 -35
-50 -33 -74 14 l-20 40 32 20 c42 25 53 25 72 -2z"/>
<path d="M7321 8876 c-9 -10 -8 -16 4 -26 21 -18 20 -24 -22 -83 -20 -28 -47
-66 -59 -84 -19 -29 -23 -30 -41 -18 -17 12 -21 11 -30 -4 -10 -15 -5 -23 30
-50 22 -17 45 -31 50 -31 4 0 16 -7 24 -16 14 -14 17 -14 32 1 15 15 15 17 -1
26 -10 6 -18 14 -18 20 0 5 26 47 58 93 53 78 58 84 77 72 17 -11 22 -11 33 0
6 7 12 15 12 18 0 5 -126 96 -133 96 -3 0 -10 -6 -16 -14z"/>
<path d="M2965 8809 c-22 -16 -44 -35 -50 -42 -5 -7 -24 -23 -42 -35 l-32 -23
90 -117 c50 -64 95 -117 99 -117 5 0 45 29 89 64 65 51 79 66 70 77 -6 8 -16
14 -21 14 -19 0 -68 -42 -62 -52 4 -6 2 -8 -3 -5 -6 4 -16 0 -23 -8 -18 -22
-27 -19 -54 22 l-25 36 50 40 c53 44 56 49 35 66 -11 9 -24 4 -60 -24 -25 -19
-51 -35 -57 -35 -12 0 -38 29 -39 42 0 4 25 26 55 49 48 36 53 43 42 60 -15
24 -14 24 -62 -12z"/>
<path d="M3850 8708 l-44 -19 29 -23 c16 -13 35 -21 42 -19 8 3 13 -3 13 -18
0 -22 1 -22 14 -4 12 16 12 23 0 39 -9 13 -10 25 -3 37 14 27 -1 29 -51 7z"/>
<path d="M7477 8610 c-48 -55 -90 -106 -93 -114 -3 -8 25 -40 71 -81 72 -65
77 -67 93 -51 16 16 14 20 -38 66 l-55 49 32 32 32 32 49 -41 c47 -40 50 -41
66 -23 15 17 13 20 -38 61 l-54 43 27 23 26 22 35 -26 c19 -15 44 -35 55 -45
19 -17 20 -17 33 0 11 16 5 25 -60 85 -40 37 -78 67 -83 68 -6 0 -50 -45 -98
-100z"/>
<path d="M3670 8670 c-1 -3 -3 -12 -5 -21 -1 -10 -12 -26 -23 -37 -20 -20 -20
-20 -31 5 -11 24 -13 24 -34 9 -12 -9 -33 -22 -47 -28 -49 -24 -149 -96 -142
-103 4 -4 2 -5 -3 -4 -15 4 -55 -11 -55 -22 0 -5 -5 -9 -10 -9 -13 0 3 13
-195 -154 -88 -74 -192 -168 -231 -208 -74 -76 -213 -237 -252 -291 -12 -18
-28 -39 -36 -48 -57 -67 -208 -316 -291 -480 -150 -296 -280 -721 -300 -985
-3 -38 -8 -80 -11 -94 -6 -25 -5 -405 1 -470 2 -19 8 -84 14 -145 5 -60 12
-121 15 -135 9 -38 20 -94 21 -105 9 -91 34 -208 61 -294 13 -40 24 -81 24
-92 0 -10 5 -21 10 -24 6 -3 10 -17 10 -30 0 -13 4 -26 9 -29 5 -3 12 -21 15
-40 4 -19 11 -36 17 -38 6 -2 13 -21 16 -43 2 -22 13 -55 24 -73 10 -18 19
-41 19 -50 0 -25 141 -303 187 -368 12 -17 19 -34 16 -38 -4 -3 -2 -6 4 -6 6
0 14 -11 17 -24 3 -14 12 -31 19 -38 7 -7 38 -51 70 -98 71 -105 138 -195 176
-236 16 -17 37 -44 46 -60 10 -16 41 -52 69 -79 28 -28 74 -77 101 -108 28
-31 55 -57 61 -57 6 0 16 -11 22 -24 9 -21 91 -96 105 -96 3 0 18 -12 34 -27
16 -16 51 -44 77 -63 26 -19 59 -48 74 -63 14 -15 42 -37 62 -49 19 -12 40
-26 45 -33 6 -6 37 -26 70 -44 33 -19 65 -39 70 -46 6 -6 57 -37 115 -69 58
-31 112 -61 120 -66 8 -6 27 -15 43 -21 15 -6 27 -15 27 -20 0 -5 9 -9 20 -9
11 0 38 -11 60 -25 39 -24 96 -47 285 -111 327 -112 765 -168 1136 -145 375
24 678 91 1018 225 226 90 536 256 639 343 15 13 31 23 35 23 5 0 6 4 2 10 -4
6 -16 5 -33 -1 -38 -15 -443 -43 -574 -40 -15 0 -30 -4 -33 -9 -4 -6 -15 -10
-26 -10 -10 0 -19 -6 -19 -13 0 -16 -38 -40 -50 -32 -6 4 -10 13 -10 21 0 25
-50 36 -200 45 -80 5 -158 11 -175 13 -29 5 -62 8 -195 22 -87 10 -82 9 -110
21 -14 6 -52 11 -84 12 -32 0 -64 5 -70 10 -6 4 -29 12 -50 15 -21 4 -48 14
-60 21 -12 8 -52 19 -91 25 -38 6 -72 15 -75 19 -3 4 -25 11 -50 15 -25 4 -54
13 -65 20 -11 7 -38 19 -60 26 -97 32 -158 101 -89 101 66 0 101 -4 111 -13 7
-6 33 -8 58 -6 25 2 45 0 45 -3 0 -12 34 -21 95 -25 33 -3 71 -7 85 -10 14 -3
39 -7 55 -9 50 -6 120 -21 130 -27 27 -16 575 -25 584 -9 4 5 15 10 26 10 11
1 27 1 35 1 8 1 39 0 69 0 67 -2 82 12 87 82 2 29 6 93 10 141 5 63 3 95 -6
112 -7 13 -10 37 -7 57 14 75 17 138 7 138 -11 0 -14 43 -3 54 13 13 11 36 -3
36 -14 0 -18 -12 -15 -37 1 -7 -8 -14 -21 -15 -13 0 -29 -2 -37 -2 -8 -1 -16
-7 -19 -14 -5 -16 -27 -15 -41 2 -9 11 -9 16 1 23 29 18 46 57 34 78 -6 11
-14 22 -17 25 -4 3 -9 16 -10 30 -4 27 -38 37 -85 26 -28 -7 -32 -32 -6 -40
13 -5 17 -17 17 -53 0 -27 -4 -54 -8 -60 -13 -20 -37 -15 -37 7 0 10 -9 24
-20 30 -11 6 -20 17 -20 25 0 20 -29 19 -52 -2 -17 -15 -18 -15 -18 1 0 21
-26 32 -44 17 -19 -16 -9 -49 17 -57 20 -6 20 -7 2 -20 -10 -8 -27 -14 -38
-14 -15 0 -18 5 -13 25 4 17 0 31 -14 45 -11 11 -20 24 -20 30 0 5 -12 12 -27
16 -16 3 -36 8 -45 11 -10 2 -18 -1 -18 -8 0 -7 -6 -4 -14 6 -11 16 -17 17
-29 7 -12 -10 -17 -8 -31 13 -9 14 -15 29 -12 33 6 11 -20 31 -30 24 -12 -9
-15 -62 -4 -62 4 0 11 -11 14 -24 5 -19 11 -23 27 -19 15 4 20 2 18 -6 -3 -7
-7 -11 -10 -9 -3 2 -13 -3 -22 -11 -19 -15 -47 -8 -47 11 0 9 -19 13 -65 13
-71 0 -105 -18 -105 -55 0 -11 -7 -23 -15 -26 -19 -8 -45 13 -39 30 3 8 -2 16
-10 19 -21 8 -13 40 15 54 13 7 24 18 24 25 0 7 8 19 18 27 14 9 16 16 8 24
-6 6 -11 26 -11 44 0 38 -16 43 -55 17 -17 -11 -26 -29 -31 -60 -7 -47 -14
-53 -34 -29 -7 8 -9 15 -5 15 4 0 2 7 -5 16 -11 13 -10 16 7 20 23 6 38 64 20
76 -8 4 -5 9 6 14 19 7 23 39 7 49 -6 4 -8 11 -5 16 6 9 -17 39 -29 39 -3 0
-6 -15 -6 -32 0 -23 -3 -29 -9 -19 -7 11 -13 9 -30 -8 -11 -11 -32 -23 -46
-27 -14 -3 -30 -14 -35 -24 -8 -15 -5 -19 17 -25 14 -3 30 -2 36 4 6 6 16 4
27 -7 24 -22 16 -75 -9 -67 -23 7 -46 -31 -31 -50 9 -11 7 -23 -5 -49 -19 -40
-27 -42 -67 -22 -24 13 -27 12 -31 -5 -7 -28 -27 -23 -27 6 0 23 -2 24 -25 13
-20 -9 -28 -9 -38 1 -9 10 -7 16 11 31 27 22 27 63 -1 68 -12 3 -21 -6 -28
-27 -7 -19 -19 -31 -32 -33 -14 -2 -21 -10 -21 -21 2 -20 -32 -24 -39 -4 -4 9
-8 9 -23 -1 -11 -6 -26 -15 -34 -18 -8 -3 -22 -9 -30 -13 -8 -4 -24 -12 -35
-18 -11 -5 -35 -17 -53 -26 -19 -9 -45 -17 -58 -17 -14 0 -36 -7 -49 -16 -16
-11 -51 -16 -107 -17 -70 -2 -83 1 -86 15 -3 16 32 38 88 53 14 4 32 13 40 20
8 7 30 16 48 20 26 5 32 11 27 23 -17 42 -16 54 11 90 16 20 28 40 26 45 -1 4
3 7 8 7 13 0 13 37 -1 45 -6 4 1 13 17 21 24 13 29 12 44 -1 11 -10 27 -14 43
-10 20 6 26 2 31 -19 7 -30 30 -34 45 -8 10 16 12 16 25 0 16 -22 36 -23 36
-3 0 8 18 28 40 43 21 15 41 33 44 40 7 15 -32 16 -68 2 -21 -8 -26 -7 -26 6
0 11 -6 15 -20 11 -11 -3 -31 3 -46 15 l-25 20 -6 -21 c-6 -25 -18 -27 -27 -6
-6 16 -36 21 -36 6 0 -5 -14 -3 -31 6 -37 18 -33 37 9 41 18 2 32 7 32 12 0 4
-8 7 -17 5 -63 -13 -73 -17 -73 -30 0 -25 -19 -17 -35 15 -9 17 -22 30 -30 30
-8 0 -15 3 -15 6 0 11 25 31 35 27 6 -2 11 6 12 17 1 11 -3 20 -8 20 -13 0
-52 -21 -59 -31 -3 -4 -17 -9 -30 -11 -31 -4 -100 -44 -100 -57 0 -6 -6 -8
-13 -5 -11 4 -37 -32 -37 -52 0 -5 24 1 57 13 7 3 10 -3 6 -16 -7 -29 14 -53
36 -42 12 7 27 4 49 -10 25 -17 31 -27 30 -52 -2 -42 -52 -79 -86 -64 -30 14
-23 30 16 42 44 13 39 40 -8 41 -57 2 -60 3 -60 20 0 8 4 13 9 9 5 -3 12 -1
16 5 6 11 0 14 -48 25 -25 5 -28 3 -22 -14 3 -11 1 -22 -5 -26 -6 -4 -8 -15
-5 -25 4 -12 -2 -27 -14 -39 -26 -26 -26 -38 -2 -53 16 -10 17 -14 5 -25 -8
-8 -14 -23 -14 -32 0 -10 -7 -24 -15 -31 -12 -10 -16 -9 -21 4 -8 20 -53 21
-60 1 -4 -8 -14 -15 -24 -15 -10 0 -21 -7 -24 -16 -3 -8 -10 -13 -14 -10 -5 3
-19 -5 -33 -17 -13 -12 -41 -30 -61 -39 -21 -10 -38 -23 -38 -29 0 -6 -7 -9
-15 -5 -19 7 -19 -8 -1 -24 17 -13 10 -40 -10 -40 -8 0 -14 -7 -14 -15 0 -8
-12 -22 -26 -32 -14 -10 -47 -34 -73 -54 -59 -45 -146 -86 -226 -106 -33 -9
-67 -21 -75 -28 -8 -7 -33 -16 -55 -20 -55 -9 -135 -35 -161 -52 -31 -20 -131
-34 -173 -24 -48 11 -155 91 -141 105 7 7 30 4 76 -13 49 -17 78 -22 117 -18
85 8 187 28 193 38 3 5 13 9 23 9 10 0 32 7 47 15 16 8 37 15 47 15 24 0 119
30 136 44 16 13 51 33 71 42 103 44 109 48 158 94 24 22 25 25 9 28 -11 2 -38
-5 -60 -16 -77 -37 -301 -71 -447 -68 -193 4 -353 37 -312 64 8 5 63 12 125
16 61 4 115 10 121 15 6 5 18 8 26 9 36 1 179 24 225 36 28 8 67 17 89 21 21
3 46 10 55 15 9 5 34 16 56 25 22 9 58 25 81 36 23 10 46 19 53 19 6 0 11 4
11 9 0 8 121 73 140 76 19 3 50 28 50 41 0 8 7 17 15 20 8 4 12 10 9 15 -3 5
-9 7 -14 4 -8 -5 -26 33 -22 48 5 17 -19 5 -34 -18 -21 -32 -34 -23 -27 19 4
28 1 36 -16 46 -18 9 -21 17 -15 47 6 33 5 35 -12 28 -10 -4 -25 -8 -33 -8 -8
0 -16 -8 -18 -18 -3 -11 -11 -15 -20 -12 -11 4 -10 10 9 30 16 17 18 24 8 23
-27 -4 -40 0 -40 11 0 15 57 79 63 72 3 -3 15 2 27 10 32 22 2 28 -37 6 -17
-10 -34 -15 -37 -12 -3 4 -14 -2 -25 -11 -22 -20 -136 -32 -146 -16 -3 5 -21
10 -39 10 -22 0 -39 8 -55 26 -12 14 -20 29 -16 32 3 3 36 5 73 4 87 -4 142 6
142 24 0 14 -17 19 -52 16 -10 -1 -18 2 -18 7 0 18 -91 35 -243 44 -30 2 -42
9 -55 30 -13 22 -14 29 -4 39 11 11 16 9 27 -6 10 -13 27 -18 66 -19 31 -1 54
4 57 11 2 6 10 8 19 5 11 -4 14 -3 9 6 -4 7 -5 23 -2 37 5 18 13 24 32 24 21
0 25 -4 21 -20 -4 -16 0 -20 22 -20 49 0 78 21 79 57 1 20 -3 31 -8 28 -6 -3
-10 -1 -10 6 0 8 -10 9 -30 5 -26 -5 -32 -2 -40 17 -5 12 -9 17 -9 10 -2 -25
-40 -35 -71 -19 -18 9 -32 11 -36 5 -3 -5 -14 -7 -25 -4 -11 4 -43 -1 -72 -11
-59 -20 -170 -22 -235 -5 -45 12 -50 38 -5 26 14 -3 31 -1 39 5 7 7 17 9 22 6
10 -6 94 18 127 36 11 6 36 11 56 9 49 -2 109 33 109 64 0 13 4 27 10 30 27
17 6 26 -47 22 -32 -3 -60 -6 -62 -6 -2 -1 2 -8 9 -16 16 -20 1 -19 -28 0 -20
15 -21 15 -15 -2 6 -16 5 -16 -10 -4 -10 8 -24 10 -34 5 -26 -11 -102 -13
-109 -3 -3 5 -16 6 -29 3 -13 -3 -29 -3 -35 1 -6 4 -36 9 -68 11 -96 7 -118
10 -130 18 -7 4 -16 4 -22 1 -5 -3 -42 8 -82 25 -40 16 -76 30 -81 30 -21 0
-127 110 -127 133 0 12 -8 17 -27 17 -24 0 -32 9 -55 53 -42 79 -34 86 27 21
79 -85 80 -86 133 -116 152 -89 249 -102 555 -77 128 10 147 14 147 29 0 10 6
23 14 30 12 9 17 7 28 -9 16 -27 38 -27 38 -1 0 13 10 24 28 30 15 6 36 15 47
21 14 9 20 9 23 0 5 -16 39 -14 45 4 4 8 2 17 -3 20 -15 10 -12 23 8 28 9 3 2
5 -15 6 -18 0 -33 -3 -33 -7 0 -12 -32 -11 -47 0 -9 7 -15 5 -19 -6 -3 -9 -13
-16 -22 -16 -8 0 -23 -7 -32 -15 -21 -19 -56 -9 -39 11 24 29 -28 47 -72 24
-13 -8 -19 -7 -19 0 0 6 -8 10 -17 8 -10 -2 -18 -12 -18 -23 0 -16 -7 -20 -32
-21 -28 -1 -30 1 -20 18 7 10 16 18 22 19 5 1 -24 7 -65 15 -85 15 -91 17
-105 26 -6 3 -28 10 -50 14 -22 4 -57 16 -77 26 -21 11 -42 17 -48 13 -5 -3
-28 12 -51 34 -22 23 -47 41 -55 41 -8 0 -14 5 -14 10 0 6 -9 10 -20 10 -17 0
-42 20 -135 108 -16 16 -40 34 -53 41 -12 7 -20 16 -16 22 3 5 -14 29 -38 52
-24 23 -47 49 -53 58 -35 56 -54 81 -78 99 -28 22 -45 90 -32 129 9 30 22 18
57 -56 18 -40 55 -90 94 -131 35 -37 64 -70 64 -74 0 -5 6 -8 13 -8 8 0 27
-15 44 -32 17 -18 40 -40 53 -48 12 -8 34 -24 47 -34 14 -11 42 -20 62 -22 51
-3 49 -2 55 -21 7 -20 59 -53 85 -53 9 0 22 -5 27 -10 21 -21 163 -42 181 -27
9 6 14 5 18 -5 3 -7 13 -15 23 -16 50 -6 58 -8 64 -16 4 -6 21 -5 43 1 41 13
65 8 65 -14 0 -20 20 -6 31 24 5 13 14 21 19 18 17 -10 6 125 -11 137 -10 7
-8 8 8 3 27 -7 36 7 28 45 -5 21 -13 30 -26 30 -10 0 -19 -4 -19 -10 0 -5 -14
-10 -32 -10 -30 0 -98 -36 -98 -52 0 -5 -9 -8 -20 -8 -11 0 -20 7 -20 15 0 8
5 15 10 15 6 0 10 7 10 15 0 8 4 15 9 15 12 0 11 52 -2 68 -7 9 -22 11 -47 7
-30 -5 -42 -2 -66 18 -33 28 -98 49 -129 41 -13 -3 -31 4 -50 20 -16 14 -42
28 -57 31 -15 4 -30 10 -33 15 -3 5 -31 21 -63 37 -63 30 -58 27 -123 80 -26
21 -55 45 -66 54 -12 9 -22 21 -24 26 -2 4 -27 28 -56 52 -28 23 -54 54 -57
67 -4 13 -11 24 -17 24 -6 0 -23 29 -39 64 -16 36 -34 67 -40 71 -19 12 -10
25 19 25 22 0 34 -8 49 -33 41 -71 199 -230 258 -260 18 -9 34 -23 37 -32 4
-8 15 -15 25 -15 22 0 72 -22 72 -32 0 -5 8 -8 19 -8 10 0 24 -6 30 -14 6 -8
22 -16 34 -19 38 -9 91 -32 120 -51 16 -11 48 -19 77 -20 27 -1 52 -5 56 -9 4
-4 16 -7 26 -7 10 0 18 -4 18 -10 0 -5 6 -10 14 -10 9 0 12 8 8 25 -3 21 -1
24 12 19 10 -4 15 -13 12 -21 -3 -8 2 -16 12 -19 9 -3 25 -10 35 -15 20 -11
41 -3 32 12 -4 5 1 12 9 15 9 3 16 12 16 19 0 15 -48 27 -56 14 -3 -5 0 -9 7
-9 9 0 10 -3 3 -10 -6 -6 -18 -8 -27 -4 -12 4 -14 11 -7 29 16 43 -29 50 -67
9 -24 -26 -43 -27 -27 -2 13 20 15 48 4 48 -6 0 -18 -5 -28 -11 -15 -9 -23 -7
-46 14 -15 15 -26 32 -24 39 5 15 -60 88 -78 88 -18 0 -84 37 -109 61 -11 10
-38 33 -59 51 -22 18 -91 85 -155 148 -110 109 -137 147 -181 250 -6 14 -19
39 -29 55 -11 17 -20 45 -20 63 -1 17 -5 32 -11 32 -5 0 -10 9 -10 21 0 17 7
13 45 -24 25 -25 45 -54 45 -65 0 -11 7 -22 15 -26 8 -3 15 -10 15 -15 0 -22
99 -151 165 -215 46 -44 195 -156 208 -156 3 0 20 -13 38 -30 18 -16 47 -36
64 -45 16 -8 41 -26 54 -40 13 -14 31 -25 40 -25 10 0 26 -9 36 -20 14 -16 20
-17 26 -8 6 10 12 8 23 -7 8 -11 17 -17 21 -14 3 4 -1 14 -10 22 -8 9 -15 23
-15 31 0 9 -7 16 -15 16 -9 0 -21 4 -28 10 -7 5 -27 21 -44 36 -18 14 -33 32
-33 40 0 19 -48 64 -67 64 -18 0 -47 28 -50 49 -1 9 -11 22 -22 30 -12 7 -21
19 -21 27 0 7 -10 18 -22 25 -28 13 -108 98 -108 113 0 6 -16 29 -35 51 -19
22 -35 45 -35 51 0 7 -7 14 -15 18 -8 3 -15 14 -15 24 0 10 -4 22 -9 28 -19
20 -61 106 -61 124 0 38 44 36 54 -3 3 -12 17 -34 31 -49 14 -15 25 -32 25
-38 0 -6 24 -37 53 -68 29 -31 68 -76 86 -99 18 -24 41 -43 52 -43 14 0 19 -7
19 -25 0 -14 5 -25 11 -25 6 0 30 -21 54 -46 32 -36 47 -45 62 -40 16 5 20 12
15 29 -5 21 -5 21 15 4 19 -17 59 -14 48 3 -10 16 7 39 41 55 19 9 32 20 30
24 -3 4 4 17 14 29 23 24 25 33 8 30 -8 -2 -12 6 -11 20 2 14 -3 22 -12 22 -8
0 -15 -6 -15 -14 0 -16 -27 -29 -41 -20 -5 3 -9 13 -9 24 0 11 -10 20 -25 24
-14 4 -23 11 -20 16 3 6 2 10 -3 10 -21 0 -23 35 -4 51 11 8 23 30 27 48 5 22
11 31 21 27 8 -3 14 -1 14 5 0 14 42 7 47 -8 2 -6 -5 -14 -16 -18 -36 -11 -23
-23 24 -23 35 1 49 6 56 20 8 16 13 17 25 7 8 -7 13 -18 10 -24 -3 -8 2 -11
15 -8 10 3 19 12 19 20 0 10 -6 13 -16 9 -13 -5 -14 -1 -9 24 5 23 3 30 -9 30
-8 0 -18 9 -21 21 -5 16 -12 19 -31 15 -13 -4 -24 -2 -24 3 0 20 -30 -2 -36
-25 -4 -15 -13 -24 -25 -24 -12 0 -16 5 -13 15 4 8 1 15 -5 15 -6 0 -11 5 -11
12 0 6 -7 19 -15 28 -10 11 -13 27 -9 48 8 39 30 48 45 19 7 -12 18 -28 26
-35 7 -8 11 -18 8 -23 -4 -5 -1 -9 4 -9 6 0 11 5 11 10 0 6 8 10 18 10 10 0
27 7 38 15 27 21 34 19 45 -14 6 -16 16 -28 22 -27 23 3 37 18 37 39 0 16 -3
18 -12 9 -22 -22 -29 -12 -26 35 3 43 1 48 -22 54 -45 13 -122 10 -117 -3 2
-7 16 -12 31 -10 37 4 32 -14 -6 -22 -28 -5 -37 -2 -60 23 -31 33 -36 51 -13
51 8 0 22 11 31 25 17 26 49 34 56 14 2 -6 15 -9 28 -7 l25 4 -27 12 c-33 14
-45 32 -21 33 11 0 13 3 5 6 -23 9 31 42 61 36 21 -4 27 -1 27 12 0 11 -7 16
-22 15 -38 -3 -48 -1 -45 13 1 8 -8 11 -28 9 -16 -2 -39 -4 -50 -5 -11 -1 -20
4 -20 10 0 7 -10 20 -22 28 -26 18 -30 35 -8 35 8 0 15 3 15 8 1 15 26 39 48
46 28 9 28 -5 2 -59 -12 -26 -15 -43 -9 -50 14 -14 43 7 47 34 4 27 19 27 27
0 7 -22 32 -20 26 2 -9 35 -5 44 22 47 37 4 34 29 -4 37 -29 7 -30 8 -13 26
16 18 16 19 -2 20 -10 1 -24 1 -31 0 -23 -3 -23 19 1 34 13 9 26 25 29 35 7
26 43 26 57 0 12 -23 40 -27 40 -6 0 8 2 20 5 28 6 15 -42 41 -51 27 -8 -14
-24 -11 -24 5 0 23 -12 25 -53 11 -38 -13 -38 -13 -22 8 8 12 18 29 21 37 3 8
11 26 17 39 10 20 9 26 -11 39 -26 17 -29 32 -6 32 11 0 14 6 9 20 -4 13 1 29
14 45 13 17 21 21 24 13 2 -7 2 0 -1 16 -3 24 -1 28 12 23 12 -5 16 0 16 23 0
22 4 28 15 24 9 -4 15 0 15 10 0 11 -9 16 -31 16 -28 0 -29 1 -15 16 9 8 16
20 16 25 0 6 8 9 18 7 18 -3 19 2 7 41 -6 20 -4 23 9 18 13 -5 21 2 32 28 17
42 28 44 50 10 9 -14 24 -24 33 -24 14 1 13 2 -1 6 -20 5 -25 23 -7 23 8 0 8
5 -1 15 -7 8 -10 24 -7 35 7 26 -14 26 -38 0 -13 -15 -22 -17 -36 -9 -21 11
-25 39 -7 57 16 16 4 26 -26 18 -15 -4 -23 -12 -21 -19 3 -6 -4 -18 -15 -25
-16 -10 -20 -10 -20 1 0 7 5 18 10 23 15 15 -8 64 -28 64 -9 0 -12 3 -9 7 4 3
-1 15 -10 26 -18 19 -17 19 15 12 21 -4 38 -2 47 5 8 7 21 10 28 7 7 -3 24 3
38 13 19 15 22 21 12 31 -7 7 -13 20 -13 28 0 20 40 101 49 101 5 0 8 21 8 46
0 37 -4 48 -18 51 -11 3 -19 9 -19 13 0 10 70 39 105 42 26 3 30 7 31 35 1 26
-2 31 -18 28 -11 -3 -32 3 -46 13 -14 9 -23 12 -19 5 9 -14 -1 -43 -15 -43 -6
0 -8 14 -4 35 6 28 4 35 -9 35 -9 0 -14 -4 -10 -9 9 -16 -29 -17 -42 -1 -7 8
-13 13 -13 10z m22 -102 c-15 -15 -26 -4 -18 18 5 13 9 15 18 6 9 -9 9 -15 0
-24z m-135 7 c0 -18 -19 -15 -25 3 -2 7 3 12 11 12 7 0 14 -7 14 -15z m43 -40
c0 -8 -7 -15 -15 -15 -16 0 -20 12 -8 23 11 12 23 8 23 -8z m-130 -24 c0 -5
-14 -9 -31 -9 -20 1 -26 4 -17 9 18 12 48 11 48 0z m180 0 c0 -20 -27 -59 -37
-53 -10 6 -17 35 -14 55 1 10 51 9 51 -2z m47 -53 c-3 -8 -6 -5 -6 6 -1 11 2
17 5 13 3 -3 4 -12 1 -19z m-32 -46 c0 -18 -20 -15 -23 4 -3 10 1 15 10 12 7
-3 13 -10 13 -16z m-44 -75 c-9 -9 -14 -8 -21 3 -6 9 -3 18 8 26 14 10 18 10
20 -3 2 -8 -1 -20 -7 -26z m-61 8 c0 -8 -4 -15 -10 -15 -5 0 -10 7 -10 15 0 8
5 15 10 15 6 0 10 -7 10 -15z m0 -45 c0 -11 -7 -23 -15 -27 -21 -8 -28 1 -20
26 8 27 35 27 35 1z m-38 -372 c-6 -6 -16 -7 -22 -3 -9 6 -9 9 1 16 17 10 34
0 21 -13z m-72 -179 c0 -11 -5 -19 -12 -17 -17 6 -19 38 -2 38 8 0 14 -9 14
-21z m-840 -275 c13 -33 13 -74 0 -74 -5 0 -10 -7 -10 -15 0 -8 -4 -15 -10
-15 -6 0 -10 28 -10 65 0 68 13 85 30 39z m820 -53 c0 -21 -13 -41 -27 -41 -9
0 -13 6 -10 14 3 7 0 19 -6 25 -8 8 -4 11 16 11 15 0 27 -4 27 -9z m120 -67
c0 -9 -5 -14 -12 -12 -18 6 -21 28 -4 28 9 0 16 -7 16 -16z m-934 -15 c3 -6 2
-15 -4 -21 -7 -7 -7 -19 -2 -33 6 -17 5 -25 -5 -29 -20 -7 -42 33 -25 44 7 5
10 15 7 23 -9 24 15 38 29 16z m154 -31 c11 -23 20 -49 20 -59 0 -9 6 -22 14
-28 7 -6 16 -33 19 -61 3 -27 13 -61 23 -75 10 -15 12 -25 5 -25 -17 0 -13
-31 7 -46 13 -10 14 -15 5 -25 -10 -10 -14 -8 -19 7 -4 10 -16 30 -25 44 -10
14 -20 36 -22 50 -1 14 -8 34 -14 45 -48 87 -70 215 -37 215 2 0 13 -19 24
-42z m660 -88 c0 -5 -5 -10 -11 -10 -5 0 -7 5 -4 10 3 6 8 10 11 10 2 0 4 -4
4 -10z m80 -50 c0 -6 -7 -13 -16 -17 -8 -3 -13 -12 -10 -19 7 -18 -25 -34 -66
-33 l-33 0 43 20 c25 11 46 28 49 39 5 20 33 28 33 10z m-860 -65 c0 -8 -4
-15 -9 -15 -6 0 -6 -12 -1 -30 5 -18 5 -30 -1 -30 -5 0 -9 11 -9 24 0 13 -5
26 -12 28 -16 6 -2 38 17 38 8 0 15 -7 15 -15z m757 -41 c-3 -3 -12 -4 -19 -1
-8 3 -5 6 6 6 11 1 17 -2 13 -5z m-118 -114 c0 -23 -1 -23 -9 -5 -5 11 -9 31
-9 45 0 23 1 23 9 5 5 -11 9 -31 9 -45z m79 -168 c-6 -7 -17 -11 -25 -8 -17 7
-17 -5 2 -30 19 -25 19 -40 0 -21 -8 9 -19 17 -25 19 -7 2 -6 16 5 41 14 33
17 36 35 25 14 -9 16 -15 8 -26z m212 14 c0 -11 -19 -15 -25 -6 -3 5 1 10 9
10 9 0 16 -2 16 -4z m-330 -26 c0 -5 -7 -7 -15 -4 -8 4 -15 8 -15 10 0 2 7 4
15 4 8 0 15 -4 15 -10z m50 -29 c0 -5 -7 -11 -14 -14 -10 -4 -13 -1 -9 9 6 15
23 19 23 5z m-720 -95 c0 -3 -4 -8 -10 -11 -5 -3 -10 -1 -10 4 0 6 5 11 10 11
6 0 10 -2 10 -4z m790 -66 c0 -10 -70 -31 -80 -25 -20 12 8 32 45 31 19 -1 35
-3 35 -6z m-730 -125 c23 -47 24 -76 3 -83 -8 -2 -13 6 -13 22 0 14 -5 26 -10
26 -13 0 -32 49 -26 67 9 24 24 14 46 -32z m777 -541 c-3 -3 -12 -4 -19 -1 -8
3 -5 6 6 6 11 1 17 -2 13 -5z m3 -269 c0 -8 -4 -15 -9 -15 -13 0 -22 16 -14
24 11 11 23 6 23 -9z m220 -80 c32 -33 33 -35 11 -35 -12 0 -19 -4 -16 -10 3
-5 16 -10 27 -10 12 0 18 -3 15 -7 -4 -3 -21 -6 -39 -5 -18 0 -35 -3 -38 -8
-3 -5 -17 0 -30 11 -25 19 -22 28 15 43 6 2 6 8 -2 16 -13 14 -6 40 11 40 7 0
27 -16 46 -35z m-880 -129 c0 -3 -4 -8 -10 -11 -5 -3 -10 -1 -10 4 0 6 5 11
10 11 6 0 10 -2 10 -4z m920 -445 c0 -5 -7 -11 -15 -15 -15 -5 -20 5 -8 17 9
10 23 9 23 -2z m157 -163 c-3 -8 -6 -5 -6 6 -1 11 2 17 5 13 3 -3 4 -12 1 -19z
m732 -439 c-15 -9 -32 -2 -24 11 3 5 13 6 21 3 12 -4 13 -8 3 -14z m771 -315
c0 -3 -5 -14 -10 -25 -8 -15 -7 -19 5 -19 8 0 15 -5 15 -11 0 -6 -7 -8 -16 -5
-8 3 -24 1 -35 -4 -16 -9 -19 -7 -19 15 0 16 6 25 15 25 8 0 15 7 15 15 0 8 7
15 15 15 8 0 15 -3 15 -6z m-280 -28 c0 -3 -4 -8 -10 -11 -5 -3 -10 -1 -10 4
0 6 5 11 10 11 6 0 10 -2 10 -4z m740 -46 c0 -6 -7 -10 -15 -10 -8 0 -15 2
-15 4 0 2 -3 12 -7 21 -5 15 -3 16 15 6 12 -7 22 -16 22 -21z m400 16 c0 -7
-9 -16 -20 -19 -17 -4 -18 -2 -9 14 11 22 29 25 29 5z m-125 -5 c7 -12 -12
-24 -25 -16 -11 7 -4 25 10 25 5 0 11 -4 15 -9z m-941 -16 c-4 -8 -8 -15 -10
-15 -2 0 -4 7 -4 15 0 8 4 15 10 15 5 0 7 -7 4 -15z m621 6 c3 -5 1 -12 -5
-16 -5 -3 -10 1 -10 9 0 18 6 21 15 7z m-480 -11 c3 -6 -6 -15 -20 -20 -34
-13 -34 -13 -28 10 6 21 37 27 48 10z m627 -95 c-2 -19 -10 -40 -18 -46 -16
-13 -17 -8 -5 23 5 13 12 31 15 41 9 28 12 20 8 -18z m-1714 -35 c-3 -22 -1
-26 13 -23 10 3 27 16 40 29 28 29 59 32 59 4 0 -23 -30 -69 -97 -148 -27 -31
-55 -70 -63 -86 -8 -15 -24 -32 -36 -36 -12 -5 -24 -19 -27 -32 -4 -13 -20
-37 -36 -54 -17 -16 -31 -35 -31 -42 0 -7 -11 -28 -25 -46 -14 -18 -25 -37
-25 -43 0 -6 -18 -31 -41 -56 -44 -51 -110 -80 -131 -59 -8 8 -5 14 13 22 23
11 70 69 97 120 7 14 22 34 33 46 10 11 19 25 19 30 0 5 11 26 25 46 14 20 25
43 25 51 0 8 9 22 20 32 11 10 20 22 20 27 0 17 -30 7 -57 -20 -15 -16 -55
-51 -88 -78 -33 -27 -66 -57 -73 -66 -6 -9 -25 -19 -42 -23 -16 -4 -32 -11
-35 -16 -20 -32 -165 -61 -165 -33 0 16 31 41 70 58 19 8 51 29 70 46 19 18
75 69 124 114 49 44 93 83 97 84 5 2 9 10 9 18 0 8 6 14 13 14 8 0 19 11 26
24 8 13 31 32 52 42 21 9 50 32 64 50 15 19 31 31 39 28 8 -3 17 0 21 5 11 19
27 0 23 -29z m1339 -9 c0 -21 -6 -31 -21 -35 -35 -9 -39 10 -9 38 15 14 28 26
29 26 0 0 1 -13 1 -29z m163 21 c0 -14 -23 -32 -39 -31 -11 0 -12 2 -3 6 6 2
12 11 12 19 0 8 7 14 15 14 8 0 15 -4 15 -8z m-345 -42 c3 -5 1 -10 -4 -10 -6
0 -11 5 -11 10 0 6 2 10 4 10 3 0 8 -4 11 -10z m-505 -40 c0 -5 -5 -10 -11
-10 -5 0 -7 5 -4 10 3 6 8 10 11 10 2 0 4 -4 4 -10z m-540 -75 c0 -14 -4 -33
-9 -43 -16 -31 -31 -71 -41 -107 -2 -5 -9 -14 -16 -20 -28 -22 -55 -128 -55
-217 1 -83 -1 -89 -25 -104 -38 -26 -48 -7 -53 98 -4 117 11 169 82 285 79
130 117 164 117 108z m-1190 -19 c0 -3 -4 -8 -10 -11 -5 -3 -10 -1 -10 4 0 6
5 11 10 11 6 0 10 -2 10 -4z"/>
<path d="M2741 8616 c-27 -29 -26 -34 36 -160 19 -37 33 -69 31 -71 -2 -2 -50
19 -106 47 l-104 51 -25 -25 -25 -25 144 -71 143 -71 29 29 29 29 -27 63 c-15
35 -34 80 -43 100 -9 21 -20 35 -26 31 -6 -3 -7 -1 -4 4 4 6 -1 30 -11 53
l-17 41 -24 -25z"/>
<path d="M3780 8485 c0 -14 0 -28 -1 -32 0 -4 4 -9 9 -11 13 -4 24 31 16 52
-9 24 -24 19 -24 -9z"/>
<path d="M7762 8454 c-12 -8 -20 -20 -16 -25 3 -5 0 -8 -8 -7 -25 5 -19 -49
11 -109 17 -33 31 -67 31 -76 0 -24 -36 -30 -65 -11 -28 18 -65 82 -65 110 0
15 -4 14 -25 -6 l-24 -23 19 -36 c25 -48 85 -105 101 -96 7 5 10 4 6 -2 -8
-13 15 -23 50 -23 31 0 83 51 83 82 0 13 -16 50 -36 83 -26 43 -34 64 -26 75
24 39 79 9 112 -62 16 -36 17 -37 38 -22 18 12 20 19 11 35 -21 39 -84 102
-116 116 -41 17 -54 16 -81 -3z"/>
<path d="M2474 8347 c-11 -12 -37 -41 -58 -64 -33 -37 -36 -44 -21 -49 10 -4
26 -2 37 5 21 13 26 10 132 -86 46 -41 48 -44 32 -62 -15 -17 -15 -19 0 -32
14 -12 20 -9 41 16 14 17 38 45 55 63 25 27 28 35 18 47 -11 14 -15 14 -31 -1
-22 -20 -31 -15 -123 68 -52 48 -58 56 -48 75 9 16 9 23 -2 32 -9 8 -17 5 -32
-12z"/>
<path d="M3775 8340 c3 -5 8 -10 11 -10 2 0 4 5 4 10 0 6 -5 10 -11 10 -5 0
-7 -4 -4 -10z"/>
<path d="M3791 8284 c0 -11 3 -14 6 -6 3 7 2 16 -1 19 -3 4 -6 -2 -5 -13z"/>
<path d="M3867 8244 c-4 -4 -7 -14 -7 -23 0 -11 3 -12 11 -4 6 6 10 16 7 23
-2 6 -7 8 -11 4z"/>
<path d="M8113 8139 c-8 -8 -8 -18 -1 -34 9 -20 5 -28 -28 -62 -21 -21 -34
-31 -30 -23 5 8 -4 4 -20 -11 -16 -14 -36 -31 -45 -37 -20 -15 -62 -24 -54
-12 10 17 -17 22 -33 6 -9 -9 -11 -16 -5 -16 6 0 22 -19 36 -43 36 -62 63 -83
82 -67 14 12 14 15 0 30 -17 18 -7 29 143 143 8 7 18 5 30 -5 19 -17 42 -13
42 6 0 7 -20 36 -45 65 -25 29 -45 57 -45 62 0 12 -14 11 -27 -2z"/>
<path d="M2217 8046 c-15 -22 -14 -25 6 -43 41 -37 142 -108 150 -105 5 1 6
-2 3 -7 -4 -5 10 -19 30 -32 29 -18 38 -19 44 -8 5 7 6 17 3 23 -3 5 -2 6 4 3
5 -4 34 23 62 59 50 62 52 66 34 79 -20 16 -15 20 -78 -58 l-31 -36 -94 74
c-51 41 -99 75 -106 75 -6 0 -19 -11 -27 -24z"/>
<path d="M2115 7897 c-35 -49 -95 -148 -95 -156 0 -5 14 -14 30 -21 17 -7 30
-16 30 -20 0 -6 46 -32 60 -34 3 -1 21 -13 40 -27 54 -40 90 -62 95 -57 3 2
29 43 59 91 45 72 52 88 40 98 -18 15 -34 2 -71 -57 -15 -24 -32 -44 -36 -44
-5 0 -22 9 -38 21 -34 24 -32 43 7 95 29 37 29 41 5 54 -17 9 -24 3 -53 -45
-18 -30 -35 -54 -38 -54 -3 -1 -16 8 -29 18 l-23 18 21 39 c12 21 28 48 36 59
13 19 13 22 -5 33 -16 10 -22 8 -35 -11z"/>
<path d="M8270 7892 c-14 -8 -50 -32 -80 -52 -30 -20 -76 -49 -102 -64 l-48
-27 22 -29 21 -29 36 28 c20 16 52 36 71 46 19 10 43 24 53 33 34 30 27 2 -27
-108 -54 -108 -56 -112 -41 -141 9 -16 18 -29 20 -29 6 0 139 83 207 129 47
32 47 33 32 57 -18 27 -32 31 -40 11 -3 -8 -11 -14 -18 -14 -7 0 -34 -15 -60
-33 -25 -18 -48 -31 -51 -28 -3 3 14 46 39 97 42 86 44 93 30 120 -22 44 -35
51 -64 33z"/>
<path d="M3718 7793 c7 -3 16 -2 19 1 4 3 -2 6 -13 5 -11 0 -14 -3 -6 -6z"/>
<path d="M3710 7735 c0 -8 5 -15 10 -15 6 0 10 7 10 15 0 8 -4 15 -10 15 -5 0
-10 -7 -10 -15z"/>
<path d="M1975 7581 c-22 -10 -47 -27 -56 -37 -19 -23 -89 -142 -89 -152 0
-11 116 -72 123 -65 4 3 7 1 7 -6 0 -7 5 -9 10 -6 6 3 10 2 10 -3 0 -5 24 -19
53 -33 28 -13 54 -27 57 -31 3 -4 25 33 49 83 35 72 42 97 38 125 -7 43 -34
87 -48 79 -5 -4 -8 -1 -7 6 3 13 -44 44 -82 52 -14 4 -42 -2 -65 -12z m85 -76
c58 -30 72 -74 45 -139 l-16 -37 -87 47 c-48 26 -90 48 -95 51 -12 7 26 64 53
78 33 19 64 18 100 0z"/>
<path d="M8463 7579 c-8 -8 -4 -22 13 -53 l23 -41 -67 -35 c-36 -19 -87 -48
-113 -63 l-48 -28 17 -28 c18 -33 21 -32 132 31 36 20 78 40 92 43 24 6 29 2
48 -34 18 -36 23 -40 40 -31 19 10 17 17 -41 128 -34 64 -67 118 -73 120 -6 1
-16 -2 -23 -9z"/>
<path d="M3625 7540 c3 -5 8 -10 11 -10 2 0 4 5 4 10 0 6 -5 10 -11 10 -5 0
-7 -4 -4 -10z"/>
<path d="M3735 7479 c-10 -15 1 -23 20 -15 9 3 13 10 10 16 -8 13 -22 13 -30
-1z"/>
<path d="M3602 7235 c0 -37 26 -52 60 -34 32 17 22 46 -21 56 l-39 10 0 -32z"/>
<path d="M8615 7243 c-22 -8 -84 -33 -137 -55 -93 -39 -97 -42 -91 -67 9 -39
65 -171 72 -170 3 0 14 3 23 7 15 6 14 12 -7 62 -13 30 -24 61 -25 68 0 14 66
46 79 37 5 -2 18 -29 30 -59 18 -43 26 -53 42 -49 21 6 19 27 -8 92 -13 30
-12 35 4 50 10 9 25 15 33 14 14 -3 38 -53 55 -110 3 -13 9 -23 13 -23 18 1
31 18 28 36 -4 20 -66 185 -69 183 -1 -1 -20 -8 -42 -16z"/>
<path d="M1949 7000 c-12 -33 -27 -60 -34 -60 -7 0 -60 16 -118 35 -58 19
-108 35 -110 35 -6 0 -31 -60 -26 -63 26 -15 171 -57 180 -51 8 4 9 3 5 -4 -4
-7 13 -17 46 -27 28 -8 53 -15 54 -15 2 0 10 21 18 48 8 26 24 70 35 98 21 54
19 64 -10 64 -13 0 -24 -17 -40 -60z"/>
<path d="M3635 7049 c-11 -17 1 -21 15 -4 8 9 8 15 2 15 -6 0 -14 -5 -17 -11z"/>
<path d="M3447 7019 c7 -7 15 -10 18 -7 3 3 -2 9 -12 12 -14 6 -15 5 -6 -5z"/>
<path d="M8640 6905 c-58 -18 -118 -36 -133 -39 -26 -6 -28 -10 -22 -39 4 -18
9 -34 11 -36 3 -3 28 3 56 12 29 9 53 15 55 13 8 -7 9 -65 2 -60 -10 6 -75
-97 -70 -111 2 -5 7 -23 10 -40 l7 -30 45 67 c24 37 48 68 53 68 5 0 15 -8 21
-17 18 -25 101 -22 120 3 17 22 19 88 5 130 -5 16 -14 48 -20 72 -6 23 -16 42
-23 41 -7 -1 -59 -16 -117 -34z m119 -92 c11 -39 -3 -63 -38 -63 -32 0 -59 26
-63 60 -3 20 3 26 37 36 45 13 52 10 64 -33z"/>
<path d="M3570 6874 c0 -8 5 -12 10 -9 6 3 10 10 10 16 0 5 -4 9 -10 9 -5 0
-10 -7 -10 -16z"/>
<path d="M1713 6762 l-113 -15 -10 -36 c-5 -20 -10 -39 -10 -42 0 -9 252 -174
265 -174 5 0 12 14 16 31 5 26 2 34 -21 49 -26 17 -26 19 -15 67 11 52 26 68
63 68 12 0 22 6 22 13 0 6 3 22 6 35 6 21 4 22 -42 21 -27 -1 -100 -9 -161
-17z m72 -94 c-4 -18 -11 -37 -15 -41 -7 -8 -100 42 -100 55 0 4 21 9 48 11
26 2 53 4 60 5 10 2 12 -6 7 -30z"/>
<path d="M3579 6619 c-12 -7 -11 -11 3 -25 17 -17 38 -12 38 11 0 17 -23 25
-41 14z"/>
<path d="M8710 6533 c-74 -14 -136 -26 -138 -28 -1 -1 1 -15 4 -31 l6 -30 101
18 c55 10 103 15 106 12 3 -3 -12 -22 -34 -42 -22 -20 -39 -41 -37 -45 1 -5
-2 -6 -7 -3 -5 4 -22 -5 -38 -20 -15 -14 -38 -33 -49 -42 -17 -14 -21 -24 -17
-55 4 -32 9 -38 24 -34 10 3 77 15 149 28 128 22 130 23 130 49 0 15 -2 29 -5
32 -3 3 -40 -1 -82 -9 -42 -8 -80 -10 -84 -6 -5 5 25 37 66 71 78 65 85 79 69
140 -7 26 5 26 -164 -5z"/>
<path d="M3552 6520 c-12 -16 -22 -34 -22 -40 0 -21 18 -9 44 30 31 47 12 57
-22 10z"/>
<path d="M1544 6448 c-22 -42 -28 -119 -15 -161 7 -20 26 -47 44 -59 18 -13
28 -16 23 -7 -4 7 0 5 9 -6 13 -16 28 -20 81 -20 64 0 66 1 103 41 41 43 57
101 46 165 -7 39 -3 35 -42 42 l-31 6 15 -30 c31 -62 -3 -149 -58 -149 -10 0
-19 -4 -19 -9 0 -14 -87 20 -108 42 -34 37 -33 93 3 135 l25 30 -31 4 c-25 4
-33 0 -45 -24z"/>
<path d="M3480 6454 c-7 -7 -9 -17 -6 -23 3 -5 -1 -11 -9 -15 -8 -3 -12 -11
-10 -19 3 -7 -8 -23 -25 -35 -34 -26 -39 -42 -11 -42 10 0 31 -12 46 -26 22
-20 30 -23 36 -12 6 9 2 14 -11 16 -20 3 -17 32 4 32 6 0 17 9 24 20 7 11 19
20 27 20 8 0 15 6 15 14 0 8 7 16 15 20 8 3 15 1 15 -4 0 -6 7 -10 15 -10 25
0 -4 38 -40 52 -63 25 -74 26 -85 12z"/>
<path d="M3680 6339 c0 -5 5 -7 10 -4 6 3 10 8 10 11 0 2 -4 4 -10 4 -5 0 -10
-5 -10 -11z"/>
<path d="M3607 6240 c6 -23 28 -27 36 -6 7 17 -1 26 -24 26 -12 0 -16 -6 -12
-20z"/>
<path d="M8616 6129 c8 -42 8 -42 42 -43 27 -1 28 -1 29 -72 1 -62 -1 -71 -15
-68 -32 8 -45 -11 -38 -52 5 -24 10 -33 15 -25 5 7 10 11 13 9 3 -3 108 40
226 93 40 18 42 21 42 61 l0 43 -93 28 c-51 16 -111 32 -132 37 -22 4 -52 11
-67 15 -27 7 -28 6 -22 -26z m186 -83 c-3 -5 4 -7 16 -4 13 4 23 0 26 -9 8
-20 7 -25 -2 -19 -4 2 -27 -4 -51 -15 -24 -11 -46 -18 -48 -15 -2 2 -6 19 -10
39 l-5 35 40 -1 c22 -1 37 -6 34 -11z"/>
<path d="M1496 6093 c-3 -21 -6 -62 -6 -90 0 -46 3 -53 20 -53 15 0 20 7 20
26 0 26 0 26 68 19 140 -12 152 -15 152 -35 0 -15 27 -36 36 -28 1 2 6 39 10
82 5 62 4 80 -7 87 -22 14 -27 11 -31 -18 -2 -16 -7 -28 -13 -28 -5 0 -55 4
-111 8 l-100 8 4 30 c3 24 1 29 -16 29 -15 0 -21 -9 -26 -37z"/>
<path d="M3566 6045 c-6 -18 3 -45 15 -45 5 0 9 6 9 14 0 8 5 16 10 18 6 2 2
8 -9 15 -16 10 -20 9 -25 -2z"/>
<path d="M3599 5988 c-8 -24 -2 -47 12 -51 32 -9 43 9 20 32 -19 19 -30 25
-32 19z"/>
<path d="M3516 5961 c-3 -5 3 -11 14 -14 21 -5 32 1 24 14 -7 12 -31 11 -38 0z"/>
<path d="M1750 5800 l0 -70 -53 0 c-30 0 -88 -3 -130 -6 l-77 -7 0 -33 0 -34
58 0 c31 0 101 3 155 7 l98 6 -2 104 c-1 101 -2 103 -25 103 -23 0 -24 -3 -24
-70z"/>
<path d="M3645 5840 c3 -5 8 -10 11 -10 2 0 4 5 4 10 0 6 -5 10 -11 10 -5 0
-7 -4 -4 -10z"/>
<path d="M8888 5773 l-3 -48 -127 3 -128 3 0 -34 c0 -31 4 -35 31 -41 17 -3
74 -6 125 -6 l94 0 0 -50 c0 -47 2 -50 25 -50 25 0 25 0 25 98 0 53 3 114 6
135 6 35 5 37 -19 37 -24 0 -26 -4 -29 -47z"/>
<path d="M1757 5563 c-3 -5 -1 -30 4 -58 14 -90 14 -92 -32 -97 -22 -2 -44 1
-48 7 -5 5 -11 34 -14 64 -7 62 -8 64 -31 55 -15 -6 -16 -16 -11 -69 l7 -62
-31 -5 c-18 -3 -33 -2 -35 1 -2 3 -7 34 -11 69 -6 57 -9 62 -31 62 -13 0 -24
-6 -24 -12 1 -26 29 -200 34 -205 4 -4 288 35 294 41 1 2 -4 49 -13 104 -8 56
-15 104 -15 107 0 8 -38 6 -43 -2z"/>
<path d="M8616 5468 c-3 -18 -10 -56 -14 -85 -7 -42 -6 -53 5 -57 26 -10 33
-6 33 19 0 29 10 30 109 14 107 -17 109 -18 113 -41 2 -13 10 -24 19 -26 13
-2 18 8 23 45 4 26 9 64 12 84 4 30 2 37 -15 42 -15 4 -21 -1 -26 -22 l-6 -27
-104 14 -105 15 0 29 c0 21 -5 28 -20 28 -14 0 -21 -9 -24 -32z"/>
<path d="M3920 5281 c0 -10 30 -24 37 -17 3 3 2 9 -2 15 -8 13 -35 15 -35 2z"/>
<path d="M1750 5231 c-36 -8 -67 -16 -69 -18 -2 -1 4 -32 13 -67 15 -54 20
-63 37 -59 20 6 25 33 10 61 -8 15 -3 17 35 20 l44 2 0 -54 c0 -35 -5 -58 -15
-66 -8 -7 -13 -16 -10 -19 2 -4 -1 -8 -8 -9 -7 0 -29 -5 -50 -10 -38 -10 -73
-6 -93 9 -6 5 -14 7 -17 4 -4 -3 -5 -2 -2 1 2 4 -2 16 -10 28 -18 24 -20 99
-4 128 10 19 9 20 -12 15 -13 -4 -30 -7 -36 -7 -18 0 -17 -102 2 -146 32 -78
79 -114 149 -114 89 0 156 64 156 150 0 51 -26 140 -42 140 -5 0 -7 4 -3 9 10
17 -9 18 -75 2z"/>
<path d="M8618 5215 c-41 -23 -71 -95 -66 -159 7 -90 48 -125 153 -133 48 -3
66 0 91 15 37 24 74 95 74 143 0 39 -21 85 -38 82 -6 -2 -9 3 -6 11 6 15 -41
50 -56 41 -5 -3 -11 -1 -15 5 -9 15 -106 11 -137 -5z m128 -70 c20 -8 40 -12
45 -9 5 3 8 2 7 -3 -1 -4 4 -18 11 -31 15 -27 6 -81 -15 -89 -8 -3 -12 -9 -9
-13 3 -4 -24 -7 -60 -6 -88 3 -119 25 -123 89 -3 41 0 47 25 61 36 19 74 20
119 1z"/>
<path d="M3912 4903 c5 -25 28 -28 28 -4 0 12 -6 21 -16 21 -9 0 -14 -7 -12
-17z"/>
<path d="M1870 4876 c-19 -8 -74 -26 -122 -41 -49 -15 -88 -31 -88 -36 0 -5
-6 -6 -14 -3 -12 5 -13 0 -7 -23 7 -24 12 -28 40 -25 18 2 57 12 88 23 31 10
58 18 59 16 2 -2 -10 -19 -26 -39 -16 -19 -26 -39 -22 -43 4 -5 2 -5 -5 -1 -7
3 -26 -12 -47 -37 -34 -41 -35 -46 -25 -78 7 -19 15 -38 19 -42 4 -5 34 -1 66
8 86 25 208 67 215 74 13 11 -10 51 -29 51 -16 0 -120 -33 -174 -55 -32 -13
-19 8 53 90 86 97 90 105 83 144 -7 34 -13 36 -64 17z"/>
<path d="M8495 4855 c-3 -8 -7 -21 -9 -29 -4 -10 19 -24 76 -45 44 -17 86 -31
92 -30 29 4 38 -1 27 -14 -6 -7 -64 -24 -130 -37 -115 -23 -121 -25 -131 -53
-5 -16 -8 -33 -5 -37 9 -14 74 -32 87 -24 7 4 10 4 6 -1 -5 -5 160 -71 189
-75 5 -1 20 60 15 63 -4 2 -40 14 -79 27 -40 13 -73 29 -73 36 0 7 23 14 58
19 105 12 139 25 151 53 24 62 24 61 -104 108 -66 24 -125 42 -132 40 -7 -3
-13 -1 -13 4 0 16 -20 12 -25 -5z"/>
<path d="M3913 4658 c1 -16 2 -16 22 0 11 9 21 18 23 18 2 1 -8 1 -22 0 -16
-1 -24 -7 -23 -18z"/>
<path d="M3978 4667 c7 -8 9 -17 5 -20 -3 -4 -2 -7 3 -7 11 0 52 29 44 31 -3
0 -18 3 -34 5 -24 4 -27 3 -18 -9z"/>
<path d="M4350 4645 c-11 -13 -8 -15 15 -15 23 0 26 2 15 15 -7 8 -14 15 -15
15 -1 0 -8 -7 -15 -15z"/>
<path d="M4872 4530 c-39 -63 -47 -115 -17 -115 11 0 23 -4 27 -9 12 -17 39
15 32 38 -6 18 -5 19 9 8 10 -9 17 -9 22 -3 4 7 14 3 28 -9 22 -21 38 -22 45
-2 2 7 -6 12 -17 12 -18 0 -20 4 -15 25 6 25 -10 37 -18 13 -5 -13 -48 25 -48
42 0 16 30 11 37 -6 4 -10 13 -14 29 -10 12 3 26 2 29 -4 8 -13 45 -13 45 -1
0 5 16 15 35 22 48 18 44 32 -7 24 -24 -4 -45 -7 -48 -8 -3 0 -17 6 -33 13
-21 10 -30 11 -39 2 -17 -17 -39 -15 -52 4 -10 13 -17 8 -44 -36z"/>
<path d="M1977 4502 c-26 -27 -45 -51 -42 -55 3 -4 2 -5 -1 -2 -12 8 -124 -96
-124 -116 0 -30 22 -69 39 -69 9 0 82 5 163 12 l146 11 -15 32 c-13 27 -19 30
-47 27 -30 -3 -34 0 -59 47 l-26 51 25 29 c21 26 23 33 13 55 -7 14 -15 26
-18 26 -4 0 -28 -22 -54 -48z m32 -158 c1 -11 -108 -28 -118 -19 -2 2 18 24
45 49 l49 44 12 -31 c6 -18 12 -37 12 -43z"/>
<path d="M8369 4509 c-12 -30 -11 -33 9 -47 27 -18 28 -42 2 -92 -18 -35 -25
-40 -55 -40 -28 0 -37 -5 -50 -29 l-15 -30 43 -5 c49 -7 255 -26 273 -26 7 0
19 18 26 41 l12 41 -95 92 c-146 140 -134 132 -150 95z m116 -149 c15 -16 31
-27 35 -25 4 2 7 -3 7 -12 0 -12 -10 -14 -54 -11 -29 3 -55 7 -58 10 -9 9 16
68 29 68 7 0 25 -13 41 -30z"/>
<path d="M5108 4483 c7 -3 16 -2 19 1 4 3 -2 6 -13 5 -11 0 -14 -3 -6 -6z"/>
<path d="M8070 4480 c0 -5 5 -10 11 -10 5 0 7 5 4 10 -3 6 -8 10 -11 10 -2 0
-4 -4 -4 -10z"/>
<path d="M4360 4445 c-10 -12 -10 -15 4 -15 9 0 16 7 16 15 0 8 -2 15 -4 15
-2 0 -9 -7 -16 -15z"/>
<path d="M7991 4445 c-32 -18 -44 -41 -37 -70 5 -18 1 -25 -15 -30 -17 -6 -20
-13 -17 -39 3 -30 0 -34 -38 -51 -36 -16 -42 -23 -39 -44 2 -14 4 -29 4 -32 1
-3 13 -11 28 -18 22 -10 24 -14 12 -25 -8 -8 -26 -16 -41 -20 -21 -5 -30 -1
-43 16 -13 20 -17 21 -25 8 -12 -19 -12 -27 0 -35 16 -10 0 -26 -20 -20 -14 4
-19 -2 -24 -36 -5 -32 -10 -40 -22 -35 -11 4 -18 -1 -21 -14 -4 -14 -12 -20
-26 -18 -26 4 -40 49 -32 101 7 46 -18 91 -47 84 -12 -4 -18 0 -18 12 0 9 -5
22 -11 28 -8 8 -6 13 9 17 52 17 82 76 45 90 -15 6 -32 -8 -33 -26 0 -10 -47
-56 -68 -66 -21 -11 -42 -5 -42 13 0 9 -10 13 -27 12 -21 -2 -29 -8 -31 -25
-4 -25 -32 -31 -32 -6 0 11 -5 14 -16 10 -9 -3 -18 -6 -20 -6 -2 0 -4 -12 -4
-27 0 -16 -5 -35 -10 -43 -8 -13 -13 -13 -31 -2 -26 17 -49 1 -31 -21 9 -11 6
-16 -15 -26 -35 -16 -54 1 -30 27 15 16 23 42 14 42 -10 0 -67 -32 -72 -41
-11 -16 -25 -10 -37 16 -18 41 -61 30 -83 -20 -8 -19 -9 -19 -13 3 -2 15 -9
22 -17 18 -15 -5 -65 15 -65 27 0 18 -44 4 -76 -26 l-36 -33 22 -39 c28 -50
33 -87 12 -83 -9 2 -19 13 -22 26 -9 38 -60 94 -81 89 -17 -4 -19 1 -19 39 0
32 -4 44 -15 44 -8 0 -15 -8 -15 -17 0 -14 -2 -15 -9 -4 -7 11 -11 10 -19 -5
-9 -15 -12 -16 -26 -5 -19 16 -21 15 -30 -21 -5 -24 -3 -28 14 -28 20 0 27
-29 22 -85 -2 -11 -3 -28 -3 -37 0 -9 -7 -19 -15 -22 -14 -5 -17 2 -15 39 0
11 -2 14 -5 7 -3 -6 -10 -10 -15 -6 -5 3 -9 -2 -9 -10 0 -9 5 -16 10 -16 6 0
10 -7 10 -15 0 -18 -16 -20 -24 -2 -3 6 -3 2 -1 -10 3 -12 1 -24 -4 -27 -11
-7 -3 -37 12 -47 9 -7 -6 -40 -35 -73 -10 -10 -15 -23 -12 -28 3 -5 1 -14 -4
-21 -6 -7 -16 -50 -22 -97 -7 -47 -16 -90 -21 -95 -15 -19 -28 -129 -17 -142
14 -17 212 -8 304 14 38 8 94 18 124 20 30 3 62 11 70 18 8 7 44 15 80 17 36
3 90 14 120 26 30 12 80 27 112 33 32 7 61 16 64 20 3 5 11 9 19 9 8 0 31 11
51 25 20 14 47 25 60 25 57 0 127 60 234 200 19 25 39 48 44 51 5 4 5 12 2 18
-4 6 -1 11 7 11 8 0 17 6 20 14 4 10 -4 17 -24 21 -60 13 -46 55 19 55 30 0
33 -2 26 -22 l-6 -23 26 24 c14 14 31 39 38 58 7 18 15 33 20 33 13 0 39 60
32 72 -4 6 -3 8 4 4 12 -7 42 31 42 54 0 9 -9 22 -20 30 -37 27 -20 57 22 41
29 -11 47 -2 53 27 3 16 -1 20 -16 17 -10 -2 -21 0 -24 6 -4 5 -2 9 4 9 6 0
15 10 22 21 9 17 8 25 -5 37 -14 14 -14 17 1 27 10 7 14 19 10 29 -7 19 -13
19 -46 1z m31 -157 c-3 -15 -6 -15 -18 -3 -19 18 -18 24 5 22 12 -1 17 -7 13
-19z m-602 -118 c0 -5 -8 -10 -18 -10 -13 0 -18 -7 -17 -22 2 -31 40 -37 48
-9 3 14 13 21 29 21 21 -1 21 -2 6 -13 -15 -12 -15 -14 2 -25 16 -10 20 -8 25
8 8 24 25 17 25 -11 0 -23 16 -25 28 -3 6 10 14 14 22 9 8 -5 9 -10 1 -18 -6
-6 -11 -21 -11 -33 0 -17 -8 -23 -34 -28 -28 -5 -33 -10 -30 -31 2 -21 -2 -25
-22 -25 -16 0 -27 -8 -33 -23 -11 -27 -31 -44 -51 -42 -8 1 -23 3 -32 3 -10 1
-18 7 -18 13 0 5 4 7 10 4 14 -9 45 10 65 41 17 26 17 27 0 20 -12 -4 -23 0
-32 14 -8 11 -23 20 -34 20 -21 0 -24 11 -10 38 15 27 25 56 27 77 1 11 2 23
3 28 2 11 51 8 51 -3z m-415 -60 c3 -5 1 -10 -4 -10 -6 0 -11 5 -11 10 0 6 2
10 4 10 3 0 8 -4 11 -10z m-275 -50 c0 -27 -4 -50 -9 -50 -11 0 -21 52 -13 65
4 5 7 13 8 18 3 15 4 17 9 17 3 0 5 -22 5 -50z m578 25 c1 -18 -3 -25 -16 -25
-30 0 -33 11 -9 31 12 10 22 18 22 19 0 0 2 -11 3 -25z m-498 -35 c13 -8 13
-11 1 -19 -8 -5 -11 -16 -8 -24 4 -11 0 -13 -13 -10 -31 8 -45 30 -30 48 14
17 29 19 50 5z m380 2 c0 -13 -12 -22 -22 -16 -10 6 -1 24 13 24 5 0 9 -4 9
-8z m-540 -112 c0 -5 -5 -10 -11 -10 -5 0 -7 5 -4 10 3 6 8 10 11 10 2 0 4 -4
4 -10z m28 -31 c-2 -6 -8 -10 -13 -10 -5 0 -11 4 -13 10 -2 6 4 11 13 11 9 0
15 -5 13 -11z m53 -34 c0 -6 -10 -12 -23 -13 -19 -4 -20 -2 -9 12 15 17 33 18
32 1z"/>
<path d="M7402 4077 c-8 -9 -4 -18 13 -33 l24 -21 6 25 c9 35 -22 55 -43 29z"/>
<path d="M5080 4428 c-8 -13 -18 -33 -22 -46 -6 -20 -4 -22 15 -16 32 9 54 32
60 60 3 19 0 24 -17 24 -12 0 -28 -10 -36 -22z"/>
<path d="M7650 4430 c0 -5 4 -10 9 -10 6 0 13 5 16 10 3 6 -1 10 -9 10 -9 0
-16 -4 -16 -10z"/>
<path d="M5423 4412 c-15 -5 -20 -11 -14 -20 9 -16 41 -5 41 14 0 8 -1 14 -2
13 -2 -1 -13 -4 -25 -7z"/>
<path d="M4180 4378 c0 -9 5 -20 10 -23 13 -8 13 5 0 25 -8 13 -10 13 -10 -2z"/>
<path d="M7553 4383 c-15 -6 -18 -73 -3 -73 6 0 10 5 10 10 0 6 9 10 19 10 17
0 18 3 8 30 -12 31 -13 32 -34 23z"/>
<path d="M6024 4366 c-8 -22 3 -33 18 -18 9 9 9 15 0 24 -9 9 -13 7 -18 -6z"/>
<path d="M6196 4363 c-12 -12 -6 -33 9 -33 8 0 15 6 15 14 0 17 -14 28 -24 19z"/>
<path d="M6147 4291 c-17 -28 -21 -125 -5 -115 4 3 8 10 8 15 0 6 8 18 19 27
14 13 17 26 14 60 -6 50 -13 52 -36 13z"/>
<path d="M7165 4310 c3 -5 13 -10 21 -10 8 0 14 5 14 10 0 6 -9 10 -21 10 -11
0 -17 -4 -14 -10z"/>
<path d="M5723 4287 c-4 -7 -16 -17 -26 -20 -19 -7 -14 -27 7 -27 14 0 43 47
34 56 -4 3 -10 -1 -15 -9z"/>
<path d="M6967 4274 c-8 -8 1 -24 14 -24 5 0 9 7 9 15 0 15 -12 20 -23 9z"/>
<path d="M5639 4260 c-1 -5 -2 -14 -3 -19 0 -5 -4 -13 -8 -17 -9 -8 9 -34 23
-34 5 0 9 18 9 40 0 22 -4 40 -10 40 -5 0 -11 -4 -11 -10z"/>
<path d="M7050 4261 c0 -5 5 -13 10 -16 6 -3 10 -2 10 4 0 5 -4 13 -10 16 -5
3 -10 2 -10 -4z"/>
<path d="M5395 4250 c-3 -5 1 -10 10 -10 9 0 13 5 10 10 -3 6 -8 10 -10 10 -2
0 -7 -4 -10 -10z"/>
<path d="M6835 4251 c-3 -5 -1 -12 5 -16 5 -3 10 1 10 9 0 18 -6 21 -15 7z"/>
<path d="M6920 4246 c0 -2 9 -6 20 -9 11 -3 20 -1 20 4 0 5 -9 9 -20 9 -11 0
-20 -2 -20 -4z"/>
<path d="M7325 4240 c3 -5 8 -10 11 -10 2 0 4 5 4 10 0 6 -5 10 -11 10 -5 0
-7 -4 -4 -10z"/>
<path d="M7488 4243 c7 -3 16 -2 19 1 4 3 -2 6 -13 5 -11 0 -14 -3 -6 -6z"/>
<path d="M5789 4219 c-10 -6 -4 -9 19 -9 17 0 32 2 32 4 0 9 -39 13 -51 5z"/>
<path d="M7048 4223 c7 -3 16 -2 19 1 4 3 -2 6 -13 5 -11 0 -14 -3 -6 -6z"/>
<path d="M5730 4209 c0 -20 21 -49 35 -49 8 0 15 -5 15 -12 0 -6 3 -8 7 -5 3
4 -2 16 -12 27 -9 10 -15 26 -12 35 5 10 0 15 -13 15 -11 0 -20 -5 -20 -11z"/>
<path d="M7030 4196 c0 -9 5 -16 10 -16 6 0 10 4 10 9 0 6 -4 13 -10 16 -5 3
-10 -1 -10 -9z"/>
<path d="M8207 4183 c-8 -16 -31 -58 -51 -95 -35 -63 -36 -67 -18 -77 16 -8
23 -2 48 42 16 29 37 53 46 55 9 2 49 -16 89 -40 76 -44 130 -71 134 -66 37
53 37 49 -11 80 -25 15 -51 25 -57 22 -7 -4 -9 -3 -4 1 4 5 -15 21 -42 35 -27
15 -65 37 -84 49 l-35 22 -15 -28z"/>
<path d="M5595 4169 c-10 -14 -1 -21 19 -13 9 3 13 10 10 15 -7 12 -21 11 -29
-2z"/>
<path d="M5915 4150 c-16 -11 -25 -20 -20 -20 6 1 19 7 29 15 10 8 23 12 27 9
5 -3 9 0 9 5 0 16 -11 13 -45 -9z"/>
<path d="M5190 4155 c0 -18 19 -40 26 -32 4 4 0 15 -9 24 -9 10 -17 13 -17 8z"/>
<path d="M2043 4127 l-132 -20 16 -31 c8 -17 17 -33 19 -34 1 -2 50 6 108 19
58 12 109 19 112 16 4 -4 -27 -44 -69 -90 l-75 -83 19 -32 20 -31 86 102 c47
56 94 111 105 123 18 20 18 22 1 52 -21 38 -24 38 -210 9z"/>
<path d="M5952 4104 c3 -17 21 -21 26 -6 1 5 -4 12 -13 16 -11 4 -15 1 -13
-10z"/>
<path d="M2333 3929 c-9 -9 -2 -26 28 -67 21 -30 39 -58 39 -62 0 -3 -18 -16
-40 -29 l-40 -22 -31 50 c-17 28 -37 51 -45 51 -28 0 -25 -29 6 -75 33 -49 34
-67 1 -84 -17 -10 -24 -4 -58 44 -39 56 -47 61 -73 45 -12 -7 -9 -15 16 -47
17 -21 38 -52 46 -68 9 -17 25 -38 36 -48 20 -18 22 -17 96 34 42 29 89 64
103 78 15 14 23 20 18 12 -5 -9 1 -7 19 4 14 10 26 19 26 21 0 13 -116 174
-125 174 -6 0 -16 -5 -22 -11z"/>
<path d="M1464 3638 c11 -98 17 -116 36 -121 37 -9 41 63 8 135 -32 71 -52 65
-44 -14z"/>
<path d="M1684 3375 c-3 -8 -2 -19 2 -26 4 -8 3 -9 -4 -5 -7 4 -16 -4 -23 -21
-28 -68 -62 -133 -71 -133 -6 0 -8 -10 -5 -22 4 -12 0 -26 -7 -32 -20 -16 -28
-62 -14 -78 7 -7 13 -19 14 -25 3 -39 5 -42 20 -36 11 4 14 13 9 32 -4 14 -3
23 1 18 4 -4 18 0 31 8 13 9 29 13 35 9 7 -5 9 -2 5 9 -3 9 -2 19 3 22 6 4 10
1 10 -5 0 -6 10 -10 23 -8 14 2 21 9 19 20 -1 9 9 25 23 36 14 11 25 25 25 30
0 6 7 18 17 27 9 9 12 20 7 23 -5 4 -14 21 -20 37 -6 17 -16 29 -22 28 -7 -2
-12 2 -12 8 0 6 7 9 15 5 8 -3 15 -1 15 5 0 16 -53 69 -68 69 -7 0 -10 5 -7
10 3 6 1 10 -5 10 -6 0 -13 -7 -16 -15z"/>
<path d="M1805 3260 c-3 -5 -1 -10 4 -10 6 0 11 5 11 10 0 6 -2 10 -4 10 -3 0
-8 -4 -11 -10z"/>
<path d="M8707 3263 c-13 -4 -17 -13 -15 -44 2 -21 9 -41 16 -44 9 -3 10 -10
4 -21 -5 -9 -7 -25 -5 -34 6 -21 -72 -75 -131 -91 -23 -6 -46 -15 -51 -19 -18
-15 -52 23 -70 78 -9 28 -21 52 -26 52 -5 0 -27 -6 -49 -12 -46 -15 -49 -28
-20 -92 21 -47 41 -68 62 -66 39 5 118 -65 118 -104 0 -21 73 -96 94 -96 9 0
35 14 58 30 22 17 45 30 50 30 5 0 24 11 42 25 18 14 37 25 42 25 13 0 68 -60
61 -67 -4 -3 5 -14 18 -25 14 -10 24 -23 22 -27 -1 -5 10 -22 24 -38 20 -22
25 -38 22 -57 -4 -20 3 -37 26 -67 22 -26 30 -46 26 -58 -4 -14 0 -20 12 -23
13 -2 17 -14 18 -46 1 -31 7 -46 22 -57 13 -9 19 -22 16 -34 -3 -12 2 -20 15
-23 13 -4 21 -18 26 -47 3 -23 15 -50 26 -61 11 -11 20 -26 20 -33 0 -8 9 -22
20 -32 11 -10 20 -28 20 -40 0 -11 14 -40 31 -63 17 -23 28 -45 25 -50 -3 -5
8 -21 24 -37 15 -15 27 -32 24 -39 -7 -20 12 -38 37 -34 35 4 69 70 51 98 -6
11 -12 29 -12 39 0 11 -4 22 -9 25 -8 5 -56 93 -110 201 -8 17 -25 44 -38 61
-13 18 -32 55 -42 83 -10 29 -27 58 -38 66 -11 8 -28 38 -37 68 -9 29 -29 67
-45 84 -15 17 -40 62 -56 99 -37 92 -56 134 -77 165 -24 36 -24 84 -2 140 9
25 15 53 11 62 -3 9 -35 30 -69 46 -35 17 -82 48 -105 71 -23 22 -46 39 -50
39 -4 -1 -16 -3 -26 -6z"/>
<path d="M2113 3134 c-18 -8 -33 -21 -33 -29 0 -8 -7 -15 -15 -15 -8 0 -15 -6
-15 -13 0 -20 -50 -72 -87 -91 -42 -21 -53 -43 -53 -103 0 -28 -6 -58 -15 -69
-8 -10 -15 -26 -15 -34 0 -8 -7 -28 -15 -44 -8 -15 -15 -34 -15 -41 0 -7 -6
-18 -14 -24 -8 -7 -18 -26 -22 -43 -3 -17 -22 -55 -40 -84 -19 -29 -34 -62
-34 -73 0 -35 -87 -221 -107 -228 -7 -3 -13 -20 -13 -37 0 -34 -20 -86 -32
-86 -5 0 -8 -6 -8 -12 0 -20 -58 -138 -68 -138 -8 0 -23 -41 -38 -105 -17 -76
-9 -106 47 -170 25 -28 38 -35 69 -35 36 0 39 2 70 65 18 36 36 65 41 65 5 0
9 13 9 29 0 16 7 34 15 41 8 7 15 21 15 31 0 10 5 21 10 24 6 3 10 15 10 26 0
10 9 28 21 40 11 11 29 44 38 72 10 29 28 69 40 90 11 21 21 51 21 67 0 18 7
33 18 39 20 11 42 72 42 115 0 15 10 37 23 49 14 12 36 59 51 107 15 47 33 90
40 95 7 6 18 19 24 31 8 16 18 20 41 16 17 -2 31 -9 31 -15 0 -6 3 -8 6 -4 8
8 35 -19 52 -52 12 -23 11 -27 -7 -40 -12 -7 -21 -23 -21 -35 0 -25 -22 -76
-32 -76 -4 0 -11 -18 -14 -39 -4 -22 -12 -42 -19 -45 -12 -4 -30 -69 -26 -93
1 -7 -2 -13 -7 -13 -12 0 -36 -75 -28 -89 4 -6 -11 -30 -33 -54 -23 -24 -38
-47 -34 -51 3 -3 -8 -19 -26 -35 -27 -24 -33 -38 -38 -86 -5 -43 -10 -59 -23
-62 -12 -3 -28 -37 -50 -106 -18 -56 -38 -106 -44 -112 -29 -26 -53 -118 -38
-141 10 -15 83 -50 119 -58 27 -6 33 -4 49 23 10 17 26 31 36 31 24 0 32 18
17 36 -8 10 -9 18 -2 22 5 4 10 21 10 39 0 21 10 43 31 68 18 19 32 42 32 50
0 8 10 20 23 26 28 15 38 30 32 49 -3 9 4 41 15 71 10 31 17 65 14 76 -4 15 0
22 15 26 12 3 21 9 20 14 -4 24 3 43 15 43 20 0 70 100 57 113 -8 8 -2 15 20
24 32 13 31 33 -2 33 -14 0 -18 4 -12 12 4 7 6 25 4 40 -2 22 2 28 17 28 13 0
31 19 54 58 43 72 55 112 33 112 -21 0 -19 8 8 36 21 23 67 33 67 15 0 -5 9
-7 20 -4 13 3 31 29 50 70 17 35 30 68 30 72 0 4 14 34 30 66 17 32 30 64 30
71 0 6 8 29 17 50 38 90 22 126 -64 140 -36 6 -39 4 -56 -30 -9 -20 -21 -36
-26 -36 -5 0 -12 -9 -16 -20 -5 -17 -13 -19 -52 -15 -36 3 -93 26 -93 38 0 1
4 17 10 36 29 101 16 161 -33 161 -13 0 -27 4 -32 9 -8 7 -107 43 -109 40 -1
0 -16 -7 -33 -15z m392 -354 c3 -5 1 -10 -4 -10 -6 0 -11 5 -11 10 0 6 2 10 4
10 3 0 8 -4 11 -10z m-5 -47 c0 -12 -39 -73 -47 -73 -3 0 -3 3 0 7 4 3 2 13
-5 20 -9 11 -9 17 3 24 8 5 10 9 6 9 -5 0 -5 5 -2 10 7 12 45 14 45 3z m-61
-91 c7 -14 5 -29 -7 -55 -9 -20 -20 -36 -24 -37 -3 0 -12 16 -18 36 -10 31
-10 38 6 54 24 24 31 24 43 2z"/>
<path d="M1620 2982 c0 -10 22 -32 32 -32 4 0 8 9 8 20 0 13 -7 20 -20 20 -11
0 -20 -4 -20 -8z"/>
<path d="M8096 2863 c-2 -10 -8 -34 -12 -53 -9 -47 -72 -136 -106 -152 -16 -7
-28 -18 -28 -24 0 -20 -24 -34 -40 -24 -12 7 -12 13 -4 27 9 15 11 45 5 73 -1
3 -8 -3 -15 -13 -14 -18 -14 -18 -20 1 -4 10 -15 28 -26 40 -16 17 -18 26 -10
41 19 36 14 40 -57 43 -42 2 -93 -5 -93 -13 0 -4 -17 -10 -37 -14 -21 -4 -76
-22 -123 -41 -47 -20 -105 -42 -130 -51 -25 -9 -54 -20 -65 -24 -56 -24 -157
-49 -177 -44 -15 4 -46 -5 -86 -25 -34 -16 -69 -30 -77 -30 -8 0 -19 -9 -25
-19 -5 -11 -19 -23 -30 -26 -12 -4 -20 -14 -19 -23 3 -32 -1 -42 -16 -42 -8 0
-15 5 -15 10 0 6 -4 10 -10 10 -5 0 -7 -7 -3 -16 5 -14 3 -14 -15 -3 -16 10
-18 16 -9 22 8 6 6 7 -6 3 -10 -3 -23 -6 -28 -6 -5 0 -9 -7 -9 -15 0 -8 7 -15
15 -15 21 0 19 -13 -5 -28 -11 -7 -20 -17 -20 -23 0 -6 -16 -29 -35 -52 -20
-23 -31 -43 -25 -45 5 -2 8 -8 4 -13 -3 -5 2 -9 10 -9 10 0 13 -6 9 -15 -3 -9
-8 -14 -11 -11 -2 3 -14 -1 -26 -9 -11 -8 -29 -15 -38 -15 -10 0 -26 -4 -36
-10 -9 -5 -33 -16 -53 -24 -36 -14 -36 -14 -31 -62 7 -76 17 -94 51 -94 37 0
43 -10 55 -80 1 -8 5 -22 9 -30 12 -30 24 -116 22 -153 -2 -20 1 -40 6 -43 14
-8 0 -24 -22 -24 -11 0 -20 -7 -20 -17 -4 -61 8 -128 27 -144 15 -12 105 -19
98 -8 -6 11 15 16 48 11 19 -3 28 -10 28 -23 0 -10 5 -21 10 -24 6 -4 17 -22
25 -41 8 -19 19 -34 25 -34 6 0 9 -4 5 -10 -8 -13 -35 -1 -35 16 0 8 -5 14
-11 14 -6 0 -8 -7 -5 -16 3 -9 6 -24 6 -35 0 -12 10 -23 25 -29 22 -8 24 -13
15 -29 -15 -29 -13 -33 11 -20 12 6 53 12 93 14 39 2 96 11 126 19 30 9 75 21
100 27 64 16 142 39 160 46 23 10 142 43 175 50 17 3 40 12 51 20 12 7 50 21
85 30 35 9 81 27 101 39 21 13 44 24 52 24 14 0 50 17 121 59 32 19 46 64 26
84 -6 6 -11 21 -11 33 0 12 -7 27 -15 34 -8 7 -15 19 -15 27 0 8 -18 53 -40
99 -36 76 -51 134 -34 134 11 0 54 -50 54 -63 0 -19 81 -177 91 -177 5 0 9 -6
9 -12 0 -7 13 -40 29 -73 16 -33 36 -78 46 -100 9 -22 30 -59 46 -83 16 -24
29 -46 29 -50 0 -4 16 -36 35 -72 19 -36 43 -83 53 -106 17 -35 25 -42 57 -47
44 -7 105 14 105 37 0 8 -6 21 -12 28 -7 7 -14 22 -16 33 -7 58 -12 79 -19 84
-4 3 -15 20 -23 36 -8 17 -27 48 -42 69 -16 21 -28 45 -28 53 0 7 -4 13 -10
13 -5 0 -12 17 -16 38 -7 43 -47 117 -67 125 -7 3 -19 24 -27 48 -7 24 -20 51
-27 60 -7 8 -13 29 -13 46 0 17 -6 33 -14 36 -8 3 -20 23 -26 44 -7 21 -18 45
-25 53 -8 8 -17 28 -21 44 -4 16 -12 39 -19 50 -31 56 -58 96 -65 96 -4 0 -10
12 -13 28 -3 15 -8 34 -11 42 -8 20 42 75 74 83 37 9 70 -2 70 -24 0 -11 5
-19 10 -19 6 0 16 -12 23 -27 6 -16 15 -30 18 -33 17 -13 89 -147 89 -166 0
-7 11 -25 24 -41 14 -16 28 -41 31 -56 4 -15 11 -27 16 -27 5 0 9 -11 9 -25 0
-14 5 -25 10 -25 6 0 10 -9 10 -20 0 -11 5 -20 10 -20 6 0 10 -6 10 -13 0 -8
13 -32 28 -53 16 -21 34 -54 40 -73 7 -19 23 -49 37 -66 13 -18 32 -52 41 -76
9 -24 22 -51 28 -59 21 -29 36 -60 36 -75 0 -8 5 -15 10 -15 6 0 10 -11 10
-25 0 -14 13 -39 29 -56 l30 -31 45 21 c37 16 46 25 47 45 1 14 2 32 3 39 1 6
-4 20 -12 29 -13 16 -13 18 2 24 20 8 21 33 1 40 -8 4 -15 12 -15 20 0 8 -8
14 -19 14 -28 0 -39 20 -37 68 2 29 -2 42 -11 42 -7 0 -13 5 -13 11 0 6 -9 22
-20 36 -11 14 -18 29 -15 32 2 4 -16 32 -41 62 -45 55 -52 69 -34 69 7 0 7 6
1 18 -5 9 -14 36 -20 58 -7 25 -21 48 -36 58 -18 12 -25 25 -25 50 0 33 -18
57 -51 69 -10 3 -18 20 -21 41 -2 19 0 32 4 30 4 -3 8 -1 8 4 0 5 -11 15 -25
22 -14 7 -25 21 -25 31 0 10 -9 23 -20 29 -22 12 -26 40 -9 57 8 8 5 20 -14
45 -20 26 -23 38 -16 57 12 31 5 65 -28 133 -38 80 -142 218 -164 218 -4 0
-10 -8 -13 -17z m-1206 -453 c0 -5 -7 -10 -15 -10 -8 0 -15 5 -15 10 0 6 7 10
15 10 8 0 15 -4 15 -10z m1000 -259 l0 -24 -20 23 c-11 13 -20 35 -20 49 l0
26 20 -25 c11 -14 20 -36 20 -49z m30 -61 c0 -5 -4 -10 -10 -10 -5 0 -10 5
-10 10 0 6 5 10 10 10 6 0 10 -4 10 -10z m-992 -527 c-4 -23 -48 -31 -48 -9 0
13 14 21 43 25 5 0 7 -7 5 -16z"/>
<path d="M975 2842 c-30 -22 -40 -82 -14 -82 5 0 13 -8 16 -17 22 -57 93 -94
107 -57 3 9 12 14 20 11 10 -4 15 6 19 36 4 23 7 51 9 61 2 15 -6 22 -37 31
-63 19 -109 25 -120 17z"/>
<path d="M1423 2813 c-13 -2 -23 -9 -23 -15 0 -5 -11 -19 -25 -30 -18 -14 -23
-26 -19 -42 4 -17 -6 -34 -46 -74 -36 -37 -50 -58 -46 -70 4 -10 -1 -27 -9
-38 -18 -23 -19 -63 -2 -85 20 -26 83 -58 104 -53 11 3 27 22 37 42 10 20 21
44 26 52 4 8 19 21 33 28 25 12 37 32 20 32 -5 0 -15 5 -23 10 -12 8 -9 14 18
40 18 16 37 30 42 30 6 0 7 19 4 43 -5 32 -2 47 10 59 22 22 21 63 -1 65 -10
1 -31 4 -48 7 -16 2 -40 2 -52 -1z m7 -283 c0 -5 -4 -10 -10 -10 -5 0 -10 5
-10 10 0 6 5 10 10 10 6 0 10 -4 10 -10z"/>
<path d="M2815 2717 c-42 -31 -63 -57 -76 -97 -7 -19 -22 -51 -35 -70 -13 -19
-32 -61 -44 -93 -13 -35 -33 -66 -50 -79 -16 -11 -26 -27 -23 -34 3 -8 0 -14
-6 -14 -6 0 -11 -6 -11 -14 0 -8 -7 -17 -16 -20 -9 -4 -14 -16 -13 -33 4 -48
0 -61 -21 -66 -16 -4 -20 -14 -20 -52 0 -36 -5 -52 -22 -66 -11 -11 -24 -19
-27 -19 -14 0 -33 -45 -37 -87 -3 -33 -14 -57 -39 -88 -19 -23 -35 -47 -35
-54 0 -6 -4 -11 -10 -11 -5 0 -9 -15 -9 -32 0 -48 -16 -103 -29 -101 -6 2 -9
-3 -6 -11 3 -8 1 -17 -5 -21 -6 -3 -11 -17 -11 -31 0 -25 -50 -103 -76 -117
-8 -5 -14 -24 -14 -47 0 -25 -6 -42 -16 -48 -18 -10 -25 -57 -14 -88 8 -20
102 -98 148 -123 23 -12 88 -14 112 -3 8 4 16 14 17 22 7 45 18 78 35 102 10
15 25 46 34 70 8 23 22 53 30 66 8 13 12 31 9 41 -3 11 6 32 25 56 16 21 30
46 30 56 0 10 5 21 10 24 6 3 10 15 10 26 0 10 9 28 20 39 11 11 20 28 20 39
0 10 8 36 17 57 9 22 16 42 15 47 -1 4 2 7 7 7 5 0 13 10 16 23 4 12 20 49 35
82 16 33 39 87 51 120 12 33 35 78 50 100 15 22 31 52 35 68 8 33 18 40 41 29
10 -5 32 -15 48 -23 25 -12 31 -22 33 -54 2 -26 -2 -43 -11 -50 -19 -14 -57
-85 -57 -107 0 -9 -5 -20 -10 -23 -6 -4 -8 -10 -5 -15 2 -4 -4 -19 -15 -33
-11 -14 -20 -32 -20 -40 0 -9 -4 -19 -10 -22 -5 -3 -10 -13 -10 -22 0 -9 -8
-25 -17 -35 -20 -23 -43 -80 -50 -128 -3 -19 -11 -44 -18 -55 -7 -11 -18 -38
-25 -60 -7 -22 -18 -44 -24 -50 -20 -17 -28 -48 -14 -57 10 -6 9 -8 -2 -8 -18
0 -56 -40 -52 -54 2 -6 -1 -19 -6 -30 -22 -49 -32 -78 -32 -96 0 -11 -7 -20
-15 -20 -8 0 -15 -6 -15 -14 0 -8 -5 -27 -11 -43 -6 -15 -10 -30 -9 -32 1 -2
-2 -7 -8 -10 -5 -3 -12 -17 -15 -31 -8 -33 21 -68 62 -76 17 -4 34 -10 37 -15
9 -14 68 3 84 25 18 25 65 123 75 157 4 13 20 52 36 87 16 35 32 74 35 88 3
13 21 53 40 89 19 36 34 72 34 81 0 9 22 62 49 118 26 56 54 119 61 141 7 22
23 60 36 85 13 25 43 87 66 137 24 51 48 93 54 93 6 0 28 15 48 34 34 33 35
37 24 63 -12 26 -75 91 -84 86 -6 -4 -54 47 -54 57 0 6 -9 10 -20 10 -11 0
-20 5 -20 10 0 6 -6 10 -14 10 -8 0 -22 7 -31 16 -8 9 -22 13 -31 10 -10 -4
-18 3 -24 20 -6 14 -25 41 -43 60 -54 57 -64 70 -70 95 -13 53 -32 99 -42 99
-5 0 -23 -11 -40 -23z"/>
<path d="M1535 2720 c3 -5 13 -10 21 -10 8 0 12 5 9 10 -3 6 -13 10 -21 10 -8
0 -12 -4 -9 -10z"/>
<path d="M3711 2502 c-11 -21 -6 -52 9 -52 11 0 20 54 10 64 -4 4 -13 -1 -19
-12z"/>
<path d="M3950 2514 c8 -4 18 -11 21 -17 4 -6 13 -5 25 2 14 8 15 11 4 11 -8
0 -26 3 -40 5 -14 3 -18 2 -10 -1z"/>
<path d="M4027 2489 c-10 -6 -34 -9 -52 -7 -31 4 -33 2 -29 -24 2 -16 6 -32 8
-37 8 -12 -21 -34 -34 -26 -6 4 -10 3 -9 -2 4 -24 -3 -53 -16 -67 -8 -8 -15
-20 -15 -26 0 -6 -12 -9 -27 -8 -19 2 -28 -2 -29 -12 -1 -35 -16 -60 -36 -60
-11 0 -22 -8 -25 -18 -4 -15 -11 -17 -46 -12 -23 3 -50 1 -61 -5 -14 -7 -20
-7 -23 3 -8 22 -58 14 -82 -14 -15 -17 -28 -23 -41 -19 -17 5 -19 3 -11 -17 5
-13 14 -22 20 -20 6 1 11 -4 11 -11 0 -24 -21 -35 -57 -30 -23 3 -33 1 -29 -5
4 -7 -10 -12 -36 -14 -55 -4 -60 -25 -21 -82 43 -61 66 -115 55 -129 -5 -7
-12 -25 -14 -40 l-5 -28 53 2 c30 1 54 6 54 11 0 4 7 8 15 8 8 0 15 5 15 11 0
6 6 9 14 6 7 -3 18 -1 24 5 7 7 12 3 17 -11 3 -12 14 -21 23 -22 9 0 12 -3 5
-5 -20 -9 4 -114 26 -114 4 0 14 11 21 24 10 21 18 24 44 20 28 -5 29 -4 13 9
-10 9 -15 21 -11 31 6 16 8 16 25 0 17 -16 45 -11 34 6 -3 5 -1 30 5 56 9 39
8 48 -6 58 -14 11 -14 13 0 25 14 12 19 11 34 -3 10 -9 29 -16 43 -15 19 0 16
4 -19 20 -40 17 -49 39 -17 39 8 0 22 12 32 28 9 15 18 29 20 31 1 2 9 -1 17
-8 17 -14 28 6 19 38 -4 17 -1 21 20 21 32 0 57 -37 32 -46 -8 -3 -15 -15 -15
-26 0 -11 -8 -22 -20 -25 -11 -3 -20 -13 -20 -22 0 -9 -5 -22 -12 -29 -9 -9
-9 -12 2 -12 36 -1 43 -16 25 -54 -10 -20 -24 -36 -32 -36 -29 0 -6 -25 28
-30 19 -3 34 -11 33 -17 -1 -7 -2 -20 -2 -28 -1 -8 -13 -17 -26 -21 -22 -5
-25 -10 -22 -52 3 -58 -2 -82 -20 -82 -8 0 -11 -6 -8 -15 4 -8 10 -12 15 -9 5
3 9 -9 9 -26 0 -17 3 -29 8 -26 12 7 48 -24 37 -32 -24 -17 -32 -47 -19 -67 9
-14 11 -31 5 -57 -8 -33 -6 -37 15 -41 13 -2 33 2 44 10 25 18 38 10 20 -12
-11 -13 -6 -18 31 -35 24 -11 56 -20 71 -20 15 0 29 -4 32 -9 5 -8 59 -20 121
-26 17 -1 50 -8 75 -15 25 -7 54 -14 65 -15 11 -1 43 -8 70 -14 114 -26 322
-52 535 -66 52 -4 146 -10 209 -15 63 -4 119 -6 125 -4 6 1 70 5 141 8 72 3
146 9 167 14 20 5 53 8 75 7 49 -4 115 14 131 37 7 9 28 20 46 24 31 5 34 9
38 47 5 41 -5 76 -25 89 -7 4 -7 11 2 21 12 15 6 67 -8 65 -21 -2 -31 5 -31
23 0 15 5 19 15 15 8 -3 15 -1 15 3 0 17 33 21 44 5 29 -39 98 18 112 94 3 18
10 35 15 38 5 3 9 12 9 20 0 8 6 29 13 47 8 18 14 35 15 40 1 4 11 17 22 29
11 12 20 29 20 37 0 11 4 10 15 -5 8 -10 15 -38 15 -60 0 -36 -5 -45 -35 -68
-30 -23 -34 -30 -28 -59 13 -72 10 -70 165 -63 174 8 198 18 198 79 0 55 -21
85 -63 89 l-32 3 -12 105 c-6 58 -13 136 -15 174 l-3 69 33 9 c33 9 33 9 26
56 -11 79 -18 86 -78 77 -61 -8 -90 -11 -133 -13 -29 -2 -35 -8 -59 -59 -14
-32 -43 -94 -64 -138 -21 -44 -46 -97 -55 -118 -9 -21 -22 -36 -28 -34 -11 3
-51 53 -87 107 -8 12 -22 32 -31 44 -9 11 -19 31 -23 44 -4 12 -12 22 -17 22
-5 0 -9 7 -9 15 0 27 -71 85 -105 86 -38 1 -93 7 -123 14 -30 7 -23 29 11 35
21 4 24 8 17 20 -8 12 -13 13 -30 2 -18 -11 -20 -10 -20 8 0 11 -3 19 -7 18
-15 -4 -53 23 -53 37 0 8 -15 17 -35 21 -19 3 -35 12 -35 18 0 7 -6 18 -12 24
-7 7 -13 18 -13 25 0 7 -9 12 -20 12 -11 0 -31 6 -44 13 -12 8 -32 11 -43 9
-18 -5 -204 9 -458 34 -58 5 -186 22 -285 36 -99 14 -192 25 -207 24 -16 -1
-28 3 -28 9 0 5 -10 9 -22 9 -13 0 -67 7 -121 17 -90 16 -98 16 -115 1 -15
-13 -21 -14 -32 -4 -10 9 -11 9 -6 0 5 -9 2 -11 -8 -7 -9 3 -13 10 -10 15 7
11 3 11 -19 -2z m-126 -292 c-8 -8 -11 -3 -11 19 1 25 2 27 11 11 8 -14 8 -22
0 -30z m-186 -57 c3 -11 17 -20 32 -22 42 -5 38 -24 -4 -22 -51 2 -49 2 -67
20 -17 17 -22 49 -6 39 6 -3 10 -2 10 4 0 17 29 1 35 -19z m310 -200 c8 -13
-15 -13 -35 0 -12 8 -11 10 7 10 12 0 25 -4 28 -10z m-265 -115 c0 -8 -4 -15
-10 -15 -5 0 -7 7 -4 15 4 8 8 15 10 15 2 0 4 -7 4 -15z m-42 -69 c-4 -27 -35
-33 -57 -9 -15 16 -16 19 -3 29 8 6 26 9 39 6 18 -3 23 -10 21 -26z"/>
<path d="M3840 2385 c0 -13 4 -14 20 -5 11 6 20 13 20 15 0 3 -9 5 -20 5 -11
0 -20 -7 -20 -15z"/>
<path d="M3710 2290 c0 -5 5 -10 10 -10 6 0 10 5 10 10 0 6 -4 10 -10 10 -5 0
-10 -4 -10 -10z"/>
<path d="M3830 1845 c0 -8 7 -15 16 -15 14 0 14 3 4 15 -7 8 -14 15 -16 15 -2
0 -4 -7 -4 -15z"/>
<path d="M3838 1753 c-20 -5 -23 -21 -8 -43 9 -13 12 -13 24 3 7 9 20 17 29
17 26 0 29 17 4 24 -12 3 -24 5 -27 5 -3 -1 -13 -3 -22 -6z"/>
<path d="M3920 1739 c0 -5 5 -7 10 -4 6 3 10 8 10 11 0 2 -4 4 -10 4 -5 0 -10
-5 -10 -11z"/>
<path d="M3824 1634 c4 -14 2 -32 -4 -39 -9 -10 -6 -16 9 -25 17 -9 21 -8 21
5 0 9 7 18 15 21 12 5 11 11 -8 34 -28 36 -41 38 -33 4z"/>
<path d="M3675 1590 c4 -6 11 -8 16 -5 14 9 11 15 -7 15 -8 0 -12 -5 -9 -10z"/>
<path d="M3782 1538 c3 -7 13 -15 24 -17 16 -3 17 -1 5 13 -16 19 -34 21 -29
4z"/>
<path d="M3855 1530 c3 -5 8 -10 11 -10 2 0 4 5 4 10 0 6 -5 10 -11 10 -5 0
-7 -4 -4 -10z"/>
<path d="M3786 1405 c-3 -8 -1 -15 3 -15 5 0 11 7 15 15 3 8 1 15 -3 15 -5 0
-11 -7 -15 -15z"/>
<path d="M6888 1333 c7 -3 16 -2 19 1 4 3 -2 6 -13 5 -11 0 -14 -3 -6 -6z"/>
<path d="M6017 1263 c-14 -14 -7 -43 11 -43 26 0 33 10 21 31 -10 20 -21 24
-32 12z"/>
</g>
</svg>
