<?xml version="1.0" standalone="no"?>
<!DOCTYPE svg PUBLIC "-//W3C//DTD SVG 20010904//EN"
 "http://www.w3.org/TR/2001/REC-SVG-20010904/DTD/svg10.dtd">
<svg version="1.0" xmlns="http://www.w3.org/2000/svg"
 width="300.000000pt" height="300.000000pt" viewBox="0 0 300.000000 300.000000"
 preserveAspectRatio="xMidYMid meet">
<metadata>
Created by potrace 1.10, written by Peter Selinger 2001-2011
</metadata>
<g transform="translate(0.000000,300.000000) scale(0.100000,-0.100000)"
fill="#000000" stroke="none">
<path d="M10 2983 c0 -5 30 -7 67 -5 119 5 131 9 31 10 -54 1 -98 -1 -98 -5z"/>
<path d="M233 2983 c15 -2 39 -2 55 0 15 2 2 4 -28 4 -30 0 -43 -2 -27 -4z"/>
<path d="M333 2983 c9 -2 23 -2 30 0 6 3 -1 5 -18 5 -16 0 -22 -2 -12 -5z"/>
<path d="M578 2983 c6 -2 18 -2 25 0 6 3 1 5 -13 5 -14 0 -19 -2 -12 -5z"/>
<path d="M1483 2983 c9 -2 25 -2 35 0 9 3 1 5 -18 5 -19 0 -27 -2 -17 -5z"/>
<path d="M2478 2983 c7 -3 16 -2 19 1 4 3 -2 6 -13 5 -11 0 -14 -3 -6 -6z"/>
<path d="M2558 2983 c7 -3 16 -2 19 1 4 3 -2 6 -13 5 -11 0 -14 -3 -6 -6z"/>
<path d="M2688 2983 c7 -3 16 -2 19 1 4 3 -2 6 -13 5 -11 0 -14 -3 -6 -6z"/>
<path d="M2777 2983 c18 -2 50 -2 70 0 21 2 7 4 -32 4 -38 0 -55 -2 -38 -4z"/>
<path d="M2933 2983 c15 -2 37 -2 50 0 12 2 0 4 -28 4 -27 0 -38 -2 -22 -4z"/>
<path d="M1286 2710 c-482 -76 -858 -460 -925 -944 -43 -308 59 -643 262 -863
32 -33 57 -66 57 -72 0 -6 4 -11 9 -11 6 0 8 -9 6 -20 -2 -11 0 -20 6 -20 5 0
1 -17 -10 -39 -18 -35 -19 -51 -1 -51 3 0 14 22 24 50 18 49 18 49 40 33 l22
-17 -24 -49 c-17 -34 -27 -45 -33 -36 -4 8 -11 10 -15 6 -4 -4 0 -15 9 -24 11
-11 17 -13 17 -5 0 13 36 17 44 4 3 -5 -4 -16 -15 -25 -10 -9 -19 -26 -19 -37
0 -11 -9 -34 -20 -52 -23 -38 -25 -52 -7 -42 6 3 0 -5 -15 -20 -16 -15 -29
-31 -29 -36 -1 -6 -3 -14 -4 -20 -1 -5 -3 -16 -4 -24 0 -8 -9 -13 -18 -12 -11
0 -17 -5 -15 -13 3 -12 1 -12 -14 0 -10 8 -26 14 -38 14 -11 0 -25 10 -32 22
-6 13 -13 21 -16 18 -2 -3 -4 5 -2 18 1 12 3 28 3 35 1 6 11 12 24 12 18 0 19
2 7 11 -11 8 -12 12 -2 16 17 7 15 24 -3 17 -8 -4 -15 -12 -15 -20 0 -8 -4
-14 -10 -14 -5 0 -12 -11 -16 -25 -3 -13 -15 -27 -26 -31 -17 -5 -18 -8 -4
-22 8 -10 41 -30 73 -47 32 -16 65 -34 73 -40 25 -18 118 -47 130 -40 5 3 10
12 10 20 0 7 20 62 44 122 60 148 69 167 83 176 20 12 16 21 -19 41 -28 17
-31 17 -25 3 4 -11 1 -17 -9 -17 -8 0 -12 -5 -9 -11 4 -6 13 -8 21 -5 8 3 14
1 14 -5 0 -5 -7 -12 -15 -15 -8 -4 -15 -15 -15 -26 0 -10 -4 -16 -10 -13 -6 4
-10 -7 -10 -24 0 -22 -5 -31 -17 -31 -9 0 -14 -3 -10 -6 3 -4 -1 -23 -10 -43
-8 -20 -17 -45 -18 -56 -1 -11 -8 -19 -14 -17 -15 3 -14 -15 2 -21 7 -4 3 -8
-10 -12 -13 -4 -23 -12 -23 -17 0 -5 6 -6 13 -2 6 4 8 3 4 -1 -11 -13 -57 -17
-57 -6 0 5 -7 17 -16 25 -14 15 -14 16 1 16 11 0 15 5 11 15 -3 8 -1 15 5 15
6 0 9 7 5 15 -3 8 0 15 7 15 8 0 8 3 -2 9 -11 7 -9 10 8 16 11 3 24 18 28 33
3 15 12 33 20 40 7 7 13 24 13 37 0 12 7 26 16 29 10 4 13 13 9 26 -5 16 -2
20 17 20 22 1 22 1 4 15 -10 8 -23 12 -27 9 -10 -6 -12 30 -2 39 3 4 17 0 30
-8 26 -17 31 -11 8 11 -29 30 -13 60 17 32 7 -7 24 -14 38 -15 71 -5 90 -8 90
-15 0 -4 16 -8 35 -8 19 0 35 -4 35 -8 0 -5 13 -7 29 -4 21 3 33 -2 46 -20 12
-15 15 -17 11 -5 -5 16 -1 17 32 11 20 -3 41 -10 46 -15 5 -4 22 -5 39 -2 23
5 28 3 22 -7 -5 -9 -4 -11 3 -6 6 4 22 0 36 -9 15 -10 25 -12 28 -5 2 7 18 7
51 1 30 -5 47 -5 47 1 0 6 11 7 28 3 35 -9 106 -10 119 -2 6 4 13 1 16 -5 3
-10 7 -10 20 0 9 8 24 12 34 11 10 -1 26 1 36 6 9 4 24 4 33 1 9 -3 12 -2 9 5
-5 7 5 8 29 4 20 -4 44 -4 53 1 10 4 25 9 33 10 8 2 26 6 39 10 21 6 23 5 18
-12 -6 -14 -3 -13 11 5 11 13 24 21 31 17 6 -4 11 -3 11 3 0 6 7 8 15 5 8 -4
15 -1 15 4 0 6 14 10 30 10 17 -1 36 4 42 10 9 9 16 8 30 -5 11 -10 18 -11 18
-5 0 7 -5 12 -11 12 -5 0 -7 4 -4 10 3 5 13 10 21 10 9 0 22 7 31 15 8 8 19
13 24 9 6 -3 16 0 24 6 8 7 15 9 15 4 0 -10 20 17 20 28 0 4 -11 3 -25 -2 -16
-6 0 14 44 55 275 260 386 690 275 1073 -106 368 -409 662 -779 758 -112 29
-332 41 -439 24z m361 -25 c412 -78 741 -384 850 -793 24 -87 27 -115 27 -267
0 -153 -3 -180 -27 -270 -49 -183 -142 -347 -274 -486 -82 -86 -106 -98 -288
-148 -240 -66 -453 -79 -680 -42 -189 32 -468 91 -485 104 -49 37 -182 182
-218 237 -134 204 -189 404 -179 650 8 199 63 375 169 541 153 239 417 416
704 473 95 19 303 19 401 1z"/>
<path d="M1390 2610 c0 -27 5 -50 10 -50 6 0 10 15 10 33 1 26 2 29 11 15 12
-22 29 -23 29 -3 0 8 5 15 10 15 6 0 8 -11 4 -25 -5 -19 -2 -25 10 -25 12 0
16 10 16 45 0 53 -23 63 -41 18 l-11 -28 -10 28 c-17 47 -38 34 -38 -23z"/>
<path d="M1274 2643 c-19 -4 -20 -8 -14 -44 4 -22 9 -41 11 -44 8 -7 59 8 59
17 0 5 -9 7 -19 3 -11 -3 -22 -1 -26 5 -4 7 2 14 14 17 12 3 21 9 21 13 0 5
-9 6 -20 3 -11 -3 -20 0 -20 6 0 6 9 11 20 11 11 0 20 5 20 10 0 10 -8 11 -46
3z"/>
<path d="M1519 2641 c11 -7 11 -15 2 -41 -14 -42 -15 -40 13 -40 23 0 24 3 19
36 -4 25 -2 39 8 45 10 6 3 9 -21 9 -24 0 -31 -3 -21 -9z"/>
<path d="M1587 2608 c-7 -55 3 -71 19 -27 l12 34 7 -32 c4 -18 13 -33 20 -33
13 0 37 75 27 85 -13 12 -22 3 -23 -22 l0 -28 -12 25 c-11 24 -26 40 -38 40
-4 0 -9 -19 -12 -42z"/>
<path d="M1178 2619 c-36 -20 -16 -79 27 -79 25 0 52 16 42 26 -3 4 -14 1 -22
-6 -13 -11 -19 -11 -32 3 -20 20 -10 47 17 47 11 0 20 5 20 10 0 13 -30 12
-52 -1z"/>
<path d="M1704 2593 c0 -19 -6 -38 -13 -42 -10 -6 -9 -10 4 -15 27 -10 30 -8
32 26 1 17 8 35 14 38 11 8 7 13 -21 22 -13 5 -16 -2 -16 -29z"/>
<path d="M1106 2602 c-2 -4 -1 -14 5 -22 16 -27 9 -34 -14 -12 -15 14 -27 18
-36 13 -12 -8 -12 -15 1 -47 9 -22 20 -37 24 -35 5 1 7 8 5 15 -16 49 -14 51
17 22 39 -36 51 -19 27 37 -16 38 -20 43 -29 29z"/>
<path d="M1777 2593 c-13 -12 -7 -44 8 -49 16 -7 21 -24 6 -24 -5 0 -17 7 -25
16 -15 14 -16 14 -16 -1 0 -8 11 -21 25 -27 21 -10 29 -9 43 6 16 16 16 18 -7
37 -13 11 -21 22 -18 26 4 3 13 0 22 -7 9 -7 19 -10 23 -6 4 4 -2 14 -12 22
-21 15 -39 18 -49 7z"/>
<path d="M1850 2560 c0 -5 7 -10 15 -10 14 0 14 -4 -1 -31 -11 -22 -13 -34 -5
-42 8 -8 14 -2 22 21 7 19 18 32 32 34 20 3 19 5 -10 21 -36 19 -53 22 -53 7z"/>
<path d="M979 2543 c0 -5 0 -27 1 -50 1 -24 -1 -43 -3 -43 -19 0 -37 15 -37
31 0 22 -35 26 -61 6 -15 -11 -14 -16 8 -50 13 -21 28 -35 34 -31 7 4 7 10 0
18 -15 18 -2 27 20 15 14 -7 26 -5 44 7 14 9 23 20 20 24 -7 11 22 21 40 14
24 -10 17 10 -13 39 -27 26 -51 35 -53 20z m36 -32 c3 -5 1 -12 -4 -15 -5 -3
-11 1 -15 9 -6 16 9 21 19 6z m-97 -42 c-2 -6 -8 -10 -13 -10 -5 0 -11 4 -13
10 -2 6 4 11 13 11 9 0 15 -5 13 -11z"/>
<path d="M1327 2519 c-109 -14 -249 -66 -348 -128 -224 -141 -373 -361 -418
-615 -14 -74 -14 -256 -1 -316 23 -103 33 -132 42 -118 7 9 8 4 4 -14 -8 -34
58 -166 126 -255 58 -75 156 -165 170 -157 6 4 8 2 5 -3 -15 -24 189 -129 318
-164 115 -32 335 -32 450 0 331 90 567 331 656 672 27 101 29 273 5 386 -81
381 -390 664 -777 713 -94 11 -135 11 -232 -1z m200 -23 c3 -3 14 -1 24 5 11
5 19 6 19 1 0 -5 11 -14 25 -20 20 -9 26 -8 34 6 7 11 10 13 11 3 0 -7 6 -11
14 -8 17 7 86 -13 86 -25 0 -4 9 -8 20 -8 11 0 20 -6 21 -12 0 -10 2 -10 6 -1
3 10 12 10 38 -1 54 -23 149 -87 139 -94 -5 -4 -10 -14 -12 -22 -3 -11 1 -11
16 3 19 17 22 15 96 -54 48 -45 75 -77 72 -86 -3 -8 -2 -12 3 -8 5 3 19 -9 32
-26 18 -25 20 -36 12 -58 -5 -14 -14 -25 -19 -24 -5 1 -11 -9 -12 -23 -3 -37
12 -29 35 18 l20 43 31 -61 c28 -55 29 -63 17 -82 -13 -18 -13 -21 2 -26 9 -4
18 -4 21 -1 3 3 0 5 -7 5 -7 0 -9 5 -5 11 8 14 24 -11 28 -44 2 -12 9 -35 15
-51 6 -16 11 -36 10 -45 -1 -9 1 -24 6 -33 4 -10 5 -25 1 -33 -3 -8 -2 -15 3
-15 10 0 7 -51 -4 -70 -5 -9 -4 -11 3 -6 7 4 12 3 12 -1 0 -12 -29 -50 -30
-39 0 5 -7 2 -17 -5 -15 -13 -15 -12 -4 9 8 14 9 28 3 35 -4 7 -10 32 -11 57
-2 25 -7 50 -12 56 -5 7 -9 16 -8 20 3 18 -1 34 -9 34 -11 0 -12 -32 -1 -45 4
-6 11 -58 15 -115 3 -58 7 -106 8 -107 2 -2 17 11 34 29 18 17 34 29 36 27 4
-5 -11 -144 -19 -168 -3 -10 -23 -26 -44 -36 -34 -15 -41 -24 -51 -64 -6 -25
-27 -81 -46 -124 -34 -79 -40 -102 -26 -110 4 -2 1 -2 -5 -1 -7 2 -13 -5 -13
-16 0 -29 -29 -53 -46 -39 -8 7 -17 9 -21 5 -3 -3 -1 -6 5 -6 7 0 12 -6 12
-14 0 -14 -59 -41 -68 -31 -3 3 -10 1 -16 -4 -6 -4 -24 -11 -41 -14 -16 -3
-39 -9 -49 -13 -15 -6 -17 -4 -11 7 7 11 6 12 -6 2 -8 -6 -25 -13 -39 -15 -21
-2 -25 1 -25 24 -1 16 3 28 8 28 4 0 5 9 2 20 -4 12 -2 20 5 20 7 0 8 7 3 18
-13 28 -9 50 12 67 11 9 14 14 8 10 -7 -3 -13 -3 -14 2 -4 72 -4 95 2 104 8
14 69 20 69 7 0 -5 7 -2 17 7 9 10 26 15 40 12 12 -2 23 0 23 5 0 6 6 8 14 5
7 -3 18 -1 22 3 5 5 24 10 42 12 17 1 32 6 32 10 0 13 30 9 31 -4 2 -25 -3
-63 -10 -73 -4 -5 -8 -23 -9 -40 -1 -16 -7 -34 -12 -39 -6 -6 -10 -21 -9 -36
l0 -25 11 25 c13 31 12 26 44 133 14 49 24 90 21 93 -3 3 -22 0 -44 -6 -72
-22 -108 -31 -143 -36 -19 -2 -44 -7 -55 -11 -11 -3 -37 -7 -58 -8 -21 -2 -39
-4 -41 -6 -2 -2 -7 -38 -10 -79 -3 -41 -8 -86 -10 -100 -7 -37 -26 -154 -26
-163 0 -18 193 16 274 49 30 12 12 -9 -48 -55 -51 -40 -61 -43 -151 -54 -56
-7 -94 -16 -92 -22 2 -5 20 -9 40 -7 21 2 37 -1 37 -6 0 -12 -49 -34 -61 -27
-5 4 -9 2 -9 -4 0 -5 -17 -15 -37 -21 -21 -6 -45 -14 -53 -16 -8 -3 -17 -5
-20 -6 -3 0 -13 -4 -24 -10 -14 -8 -17 -7 -10 4 6 10 5 11 -7 1 -19 -15 -214
-35 -234 -24 -5 3 -26 4 -45 3 -26 -2 -31 0 -20 7 9 7 10 11 3 11 -6 0 -15 -5
-18 -10 -4 -6 -12 -7 -18 -3 -6 4 -27 8 -47 10 -19 2 -39 8 -44 13 -5 5 -16 6
-25 2 -14 -5 -14 -4 -2 11 15 19 1 23 -17 5 -9 -9 -12 -9 -12 1 0 7 -4 9 -10
6 -5 -3 -10 -2 -10 4 0 5 -9 8 -20 6 -12 -2 -30 5 -40 15 -11 11 -25 20 -30
20 -5 0 -10 4 -10 10 0 5 -7 7 -15 4 -8 -4 -15 -2 -15 4 0 5 -13 15 -30 22
-16 7 -30 18 -30 26 0 7 -9 16 -20 19 -11 4 -17 11 -14 17 5 7 2 9 -7 6 -8 -3
-23 3 -33 13 -17 16 -17 19 -3 19 9 0 19 -5 22 -10 4 -6 16 -8 27 -4 17 5 20
3 15 -10 -9 -22 -5 -20 27 9 28 26 46 32 46 15 0 -5 -7 -10 -15 -10 -8 0 -15
-4 -15 -10 0 -33 108 37 173 112 13 15 17 16 17 5 0 -8 -31 -44 -68 -79 -66
-62 -92 -98 -72 -98 6 0 10 5 10 11 0 5 4 8 9 5 5 -4 19 6 31 21 78 101 109
146 104 154 -3 5 1 9 8 9 8 0 14 9 15 20 2 25 1 25 -43 -5 -51 -34 -126 -55
-200 -55 -35 0 -66 -5 -69 -10 -4 -6 -3 -10 2 -9 4 1 22 1 40 0 24 -1 31 -5
27 -16 -7 -17 -3 -18 20 -9 9 3 14 9 11 14 -2 4 7 5 20 2 15 -2 42 6 71 22 26
14 49 25 51 22 5 -4 -87 -66 -99 -66 -5 0 -7 -4 -4 -8 3 -5 -9 -9 -27 -10 -18
0 -49 -4 -70 -7 -24 -5 -42 -3 -52 5 -9 7 -18 11 -21 8 -3 -3 -22 12 -43 33
-22 21 -41 35 -44 33 -3 -3 -8 5 -12 18 -4 13 -18 33 -31 44 -17 17 -20 24
-11 33 9 9 8 11 -4 6 -10 -4 -19 0 -22 9 -3 8 1 17 9 20 8 3 14 11 14 18 0 9
-3 8 -10 -2 -7 -11 -10 -11 -10 -2 0 7 -4 10 -10 7 -12 -7 -62 103 -53 118 4
6 1 7 -7 2 -10 -6 -11 -2 -6 19 4 18 2 26 -7 26 -8 0 -14 6 -14 13 -3 65 -8
97 -16 97 -5 0 -4 7 3 15 8 10 9 15 2 15 -6 0 -11 12 -10 28 0 15 -3 37 -7 50
-6 17 -3 22 10 22 17 0 17 1 2 18 -22 24 -22 43 0 35 17 -7 17 -6 0 11 -20 20
-22 27 -6 23 6 -1 14 4 17 12 3 9 0 11 -7 7 -8 -6 -10 1 -6 21 4 15 8 42 10
58 7 45 36 137 51 160 8 11 14 26 14 34 0 7 11 23 23 35 13 12 27 34 30 48 4
15 22 43 41 62 18 20 31 38 28 41 -3 3 2 5 12 5 9 0 14 5 11 10 -3 6 2 10 11
10 10 0 14 3 11 7 -8 8 42 63 56 63 5 0 20 10 32 23 31 31 66 57 95 70 14 6
28 16 32 22 5 7 15 5 29 -3 19 -12 21 -12 16 1 -7 18 12 36 41 42 12 2 30 8
41 14 11 6 33 12 48 13 15 1 31 6 35 12 3 5 13 2 23 -7 21 -21 32 -22 15 -2
-10 13 -9 15 11 16 57 3 90 6 94 10 6 7 125 2 132 -5z m90 -2 c-3 -3 -12 -4
-19 -1 -8 3 -5 6 6 6 11 1 17 -2 13 -5z m665 -1159 c-16 -50 -33 -60 -27 -17
2 15 4 32 4 39 1 6 9 14 19 16 9 3 18 5 18 6 1 0 -5 -19 -14 -44z m-1623 -120
c0 -5 -8 6 -19 25 -11 19 -19 40 -19 45 0 6 8 -6 19 -25 11 -19 19 -39 19 -45z
m1585 46 c3 -5 -2 -12 -11 -15 -15 -6 -15 -8 -3 -17 10 -7 11 -9 2 -7 -8 2
-13 7 -13 11 1 4 1 14 1 22 0 16 16 20 24 6z m-1564 -81 c6 -11 8 -20 6 -20
-3 0 -10 9 -16 20 -6 11 -8 20 -6 20 3 0 10 -9 16 -20z m1540 4 c0 -2 -7 -4
-15 -4 -8 0 -15 4 -15 10 0 5 7 7 15 4 8 -4 15 -8 15 -10z m-20 -29 c0 -2 -9
-9 -20 -15 -16 -9 -18 -8 -14 5 5 13 34 22 34 10z m-1459 -62 c23 -32 35 -52
25 -44 -18 15 -80 101 -73 101 3 0 24 -26 48 -57z m79 -98 c19 -19 32 -35 29
-35 -3 0 -20 16 -39 35 -19 19 -32 35 -29 35 3 0 20 -16 39 -35z"/>
<path d="M1473 2465 c1 -14 -3 -19 -15 -17 -10 2 -18 -2 -18 -8 0 -20 55 -7
58 14 2 10 0 16 -6 12 -6 -3 -13 0 -16 6 -3 7 -4 4 -3 -7z"/>
<path d="M1534 2458 c-4 -5 -1 -14 7 -18 14 -9 29 -4 29 10 0 13 -29 20 -36 8z"/>
<path d="M1586 2415 c-3 -8 -1 -15 4 -15 6 0 10 7 10 15 0 8 -2 15 -4 15 -2 0
-6 -7 -10 -15z"/>
<path d="M1150 2410 c0 -5 5 -10 11 -10 5 0 7 5 4 10 -3 6 -8 10 -11 10 -2 0
-4 -4 -4 -10z"/>
<path d="M1810 2409 c0 -5 5 -7 10 -4 6 3 11 -2 12 -12 0 -10 2 -25 3 -33 3
-27 -13 -47 -52 -66 -21 -10 -42 -17 -46 -16 -4 1 -16 -5 -25 -15 -16 -15 -15
-16 13 -9 17 4 50 19 75 34 35 21 47 36 54 64 7 29 6 40 -7 52 -18 18 -37 21
-37 5z"/>
<path d="M1456 2384 c-8 -22 4 -40 15 -23 11 18 11 39 0 39 -5 0 -12 -7 -15
-16z"/>
<path d="M1556 2392 c-2 -4 -1 -14 5 -22 7 -12 9 -10 9 8 0 23 -5 28 -14 14z"/>
<path d="M1130 2360 c-9 -6 -10 -10 -3 -10 6 0 15 5 18 10 8 12 4 12 -15 0z"/>
<path d="M1507 2351 c-3 -14 -1 -18 10 -14 8 3 19 0 24 -8 5 -9 9 -10 9 -2 0
10 -26 43 -35 43 -1 0 -5 -9 -8 -19z"/>
<path d="M1260 2340 c-8 -5 -12 -12 -9 -15 4 -3 12 1 19 10 14 17 11 19 -10 5z"/>
<path d="M1652 2300 c0 -14 2 -19 5 -12 2 6 2 18 0 25 -3 6 -5 1 -5 -13z"/>
<path d="M1936 2291 c-3 -5 1 -11 9 -14 9 -4 12 -1 8 9 -6 16 -10 17 -17 5z"/>
<path d="M1243 2265 c0 -8 8 -15 17 -15 9 0 21 -5 28 -12 9 -9 15 -9 24 0 9 9
9 15 -1 25 -11 10 -12 9 -6 -2 6 -10 2 -11 -16 -6 -13 4 -29 11 -35 16 -7 5
-11 3 -11 -6z"/>
<path d="M1385 2260 c4 -6 11 -8 16 -5 14 9 11 15 -7 15 -8 0 -12 -5 -9 -10z"/>
<path d="M1893 2251 c-12 -11 -23 -18 -26 -15 -3 3 -8 1 -12 -5 -12 -20 21
-11 55 14 19 14 27 25 19 25 -8 0 -25 -9 -36 -19z"/>
<path d="M1450 2255 c-2 -5 -2 -13 -1 -17 0 -5 -6 -8 -14 -8 -8 0 -15 6 -15
13 0 9 -2 9 -8 0 -8 -13 -44 -13 -53 1 -4 5 -12 5 -19 1 -22 -14 5 -24 70 -25
105 -2 141 0 137 8 -3 4 -22 7 -44 6 -25 0 -40 5 -45 15 -4 9 -7 12 -8 6z"/>
<path d="M1639 2249 c-8 -5 -26 -9 -41 -9 -15 0 -30 -5 -33 -11 -5 -7 8 -8 41
-4 60 9 83 19 62 28 -8 3 -21 1 -29 -4z"/>
<path d="M906 2224 c-5 -14 -4 -15 9 -4 17 14 19 20 6 20 -5 0 -12 -7 -15 -16z"/>
<path d="M1231 2216 c12 -10 59 -15 59 -6 0 5 -14 10 -32 10 -17 0 -29 -2 -27
-4z"/>
<path d="M991 2194 c0 -11 3 -14 6 -6 3 7 2 16 -1 19 -3 4 -6 -2 -5 -13z"/>
<path d="M1283 2151 c-36 -78 -72 -193 -66 -208 7 -17 23 -17 24 0 0 6 3 26 5
42 3 17 7 38 8 47 3 25 16 35 16 13 0 -25 10 -13 16 20 2 14 1 24 -4 21 -5 -3
-2 10 6 29 9 19 19 32 24 29 4 -3 8 6 8 20 0 23 2 24 29 15 16 -6 64 -11 107
-12 44 -1 82 -6 85 -10 4 -5 17 -3 29 5 18 10 24 10 27 0 3 -6 10 -9 16 -5 16
10 52 12 65 4 13 -8 36 -111 34 -148 -1 -12 3 -25 10 -29 8 -5 9 4 5 32 -4 21
-9 56 -13 76 -10 66 -21 93 -35 90 -36 -9 -251 -1 -307 11 l-64 14 -25 -56z"/>
<path d="M1766 2201 c-4 -7 -5 -15 -2 -18 9 -9 19 4 14 18 -4 11 -6 11 -12 0z"/>
<path d="M1156 2183 c-6 -14 -5 -15 5 -6 7 7 10 15 7 18 -3 3 -9 -2 -12 -12z"/>
<path d="M1225 2180 c-10 -11 -13 -20 -7 -20 7 0 12 -5 12 -12 0 -6 -3 -8 -7
-4 -9 8 -42 -71 -42 -102 -1 -34 17 -17 25 24 3 19 12 40 18 47 18 19 46 65
46 77 0 17 -26 11 -45 -10z"/>
<path d="M1720 2186 c0 -8 5 -18 11 -21 6 -4 15 -17 20 -29 9 -19 9 -19 4 4
-3 14 -7 32 -9 39 -4 20 -26 26 -26 7z"/>
<path d="M825 2170 c-3 -6 1 -7 9 -4 18 7 21 14 7 14 -6 0 -13 -4 -16 -10z"/>
<path d="M980 2159 c0 -5 5 -7 10 -4 6 3 10 8 10 11 0 2 -4 4 -10 4 -5 0 -10
-5 -10 -11z"/>
<path d="M2017 2153 c-4 -3 -7 -11 -7 -16 0 -6 3 -7 7 -4 3 4 12 2 20 -4 8 -7
13 -8 13 -1 0 14 -25 33 -33 25z"/>
<path d="M2098 2120 c14 -16 28 -27 31 -23 4 3 0 8 -6 10 -7 3 -13 11 -13 18
0 10 -20 25 -35 25 -2 0 9 -13 23 -30z"/>
<path d="M1165 2120 c-3 -5 -1 -10 4 -10 6 0 11 5 11 10 0 6 -2 10 -4 10 -3 0
-8 -4 -11 -10z"/>
<path d="M2050 2095 c0 -8 3 -15 8 -15 4 0 15 -19 25 -42 18 -40 18 -42 0 -59
-26 -25 -128 -74 -198 -94 -33 -9 -66 -19 -74 -21 -8 -3 -11 -7 -8 -10 13 -14
203 57 282 105 35 21 35 40 -1 106 -27 48 -34 54 -34 30z"/>
<path d="M733 2085 c0 -7 6 -11 14 -8 7 3 13 6 13 8 0 2 -6 5 -13 8 -8 3 -14
-1 -14 -8z"/>
<path d="M1150 2081 c0 -6 5 -13 10 -16 6 -3 10 1 10 9 0 9 -4 16 -10 16 -5 0
-10 -4 -10 -9z"/>
<path d="M891 2054 c0 -11 3 -14 6 -6 3 7 2 16 -1 19 -3 4 -6 -2 -5 -13z"/>
<path d="M965 2060 c3 -5 8 -10 11 -10 2 0 4 5 4 10 0 6 -5 10 -11 10 -5 0 -7
-4 -4 -10z"/>
<path d="M1600 2060 c-9 -6 -10 -10 -3 -10 6 0 15 5 18 10 8 12 4 12 -15 0z"/>
<path d="M735 2040 c4 -14 8 -29 9 -35 0 -5 6 -13 11 -17 6 -5 4 -12 -5 -18
-13 -8 -12 -10 3 -10 9 0 17 -5 17 -12 0 -6 2 -9 5 -6 7 7 -24 100 -37 113 -7
7 -8 2 -3 -15z"/>
<path d="M1131 2048 c-1 -10 4 -18 9 -18 6 0 10 -11 10 -25 0 -14 -4 -25 -8
-25 -4 0 -8 -8 -8 -17 -3 -47 -24 -120 -24 -80 0 20 -16 23 -23 5 -3 -10 -9
-10 -28 1 -21 12 -22 12 -9 -2 8 -8 32 -20 53 -25 34 -10 37 -9 38 11 0 12 8
47 18 77 15 46 16 57 4 68 -7 7 -10 18 -7 24 4 6 2 8 -4 4 -5 -3 -13 0 -15 6
-3 8 -6 6 -6 -4z"/>
<path d="M699 2043 c-1 -5 0 -16 1 -27 1 -12 -3 -16 -10 -11 -13 8 -3 -14 21
-45 9 -12 10 -11 4 5 -4 11 -7 35 -6 53 1 17 -1 32 -4 32 -3 0 -6 -3 -6 -7z"/>
<path d="M774 2034 c3 -9 6 -18 6 -20 0 -2 4 -4 9 -4 6 0 9 9 8 20 -1 11 -8
20 -15 20 -9 0 -12 -6 -8 -16z"/>
<path d="M1003 2005 c0 -8 4 -12 9 -9 4 3 8 9 8 15 0 5 -4 9 -8 9 -5 0 -9 -7
-9 -15z"/>
<path d="M790 1984 c0 -8 5 -12 10 -9 6 3 10 10 10 16 0 5 -4 9 -10 9 -5 0
-10 -7 -10 -16z"/>
<path d="M815 1960 c-3 -5 -2 -10 4 -10 5 0 13 5 16 10 3 6 2 10 -4 10 -5 0
-13 -4 -16 -10z"/>
<path d="M1734 1903 c3 -46 1 -53 -15 -53 -10 0 -21 -4 -24 -10 -7 -11 15 -13
39 -4 17 7 20 51 5 94 -6 18 -7 11 -5 -27z"/>
<path d="M2213 1919 c-11 -11 15 -79 29 -79 11 0 10 7 -3 32 -7 13 -8 23 -1
27 6 4 5 10 -3 18 -8 7 -16 8 -22 2z"/>
<path d="M771 1906 c-8 -10 -9 -16 -1 -21 5 -3 10 1 10 10 0 9 5 13 10 10 6
-3 10 -1 10 4 0 15 -15 14 -29 -3z"/>
<path d="M838 1913 c7 -3 16 -2 19 1 4 3 -2 6 -13 5 -11 0 -14 -3 -6 -6z"/>
<path d="M1197 1890 c-5 -24 -3 -38 8 -49 25 -25 34 0 16 44 l-18 40 -6 -35z"/>
<path d="M1237 1898 c6 -7 13 -25 16 -39 6 -23 13 -27 59 -33 74 -8 300 -8
295 2 -3 4 -38 7 -78 6 -49 0 -78 4 -87 13 -7 7 -18 13 -25 13 -6 0 -2 -7 9
-15 18 -15 17 -16 -16 -9 -19 3 -37 11 -38 16 -2 5 -11 3 -20 -4 -12 -10 -16
-10 -19 -1 -4 10 -10 10 -25 2 -15 -8 -19 -8 -14 0 4 7 -1 11 -13 11 -14 0
-19 5 -15 15 4 8 1 15 -6 15 -6 0 -8 5 -5 10 3 6 -1 10 -11 10 -12 0 -14 -4
-7 -12z"/>
<path d="M830 1890 c0 -5 5 -10 11 -10 5 0 7 5 4 10 -3 6 -8 10 -11 10 -2 0
-4 -4 -4 -10z"/>
<path d="M1410 1890 c0 -5 5 -10 11 -10 5 0 7 5 4 10 -3 6 -8 10 -11 10 -2 0
-4 -4 -4 -10z"/>
<path d="M786 1875 c-13 -34 65 -117 177 -188 15 -10 25 -22 22 -28 -4 -5 -3
-9 2 -8 24 4 37 -1 26 -12 -14 -14 -56 -2 -47 14 5 9 4 9 -6 0 -10 -9 -19 -9
-40 2 -15 8 -30 11 -34 8 -3 -4 -6 -2 -6 4 0 6 -10 13 -22 17 -19 4 -20 8 -10
18 11 11 16 10 26 -4 13 -18 65 -42 73 -34 3 3 -13 16 -34 29 -50 32 -127 100
-130 115 -5 21 -38 67 -51 70 -14 2 -16 -14 -3 -22 5 -3 7 -16 5 -29 -2 -12
-2 -16 2 -9 3 6 9 12 14 12 11 0 19 -49 8 -52 -15 -5 39 -73 80 -101 36 -23
146 -67 171 -67 5 0 11 9 14 20 7 27 18 24 47 -12 l24 -31 -24 6 c-22 5 -23 5
-8 -7 10 -7 19 -24 20 -37 3 -23 0 -24 -54 -25 -32 -1 -55 3 -52 8 3 5 -6 7
-20 4 -15 -3 -32 1 -40 9 -7 8 -17 11 -20 7 -4 -3 -11 0 -16 8 -7 11 -10 12
-10 2 0 -7 -5 -10 -10 -7 -6 4 -8 11 -5 16 4 5 0 9 -8 9 -9 0 -14 8 -12 18 1
9 0 11 -2 5 -6 -19 -13 -16 -39 14 -13 15 -26 25 -29 22 -7 -7 42 -60 80 -86
43 -30 129 -53 197 -53 32 0 58 -4 58 -10 0 -9 -10 -11 -85 -14 -80 -3 -212
57 -251 115 -10 16 -26 29 -34 28 -10 0 -11 -2 -2 -6 6 -2 9 -10 6 -15 -4 -6
-3 -8 3 -5 13 8 37 -37 30 -56 -4 -11 2 -13 24 -11 21 3 28 0 23 -8 -5 -7 -2
-9 9 -5 9 3 18 0 21 -9 3 -8 13 -14 21 -14 9 0 14 -4 11 -9 -3 -5 6 -9 19 -10
63 -5 64 -5 53 -18 -25 -30 -151 8 -132 39 3 4 -2 5 -11 1 -15 -5 -14 -9 8
-30 13 -13 41 -28 63 -33 43 -10 176 -2 169 10 -3 5 2 10 10 13 10 4 12 1 8
-10 -5 -12 -3 -14 8 -7 8 4 23 7 33 5 17 -2 18 2 13 51 -4 29 -7 71 -7 94 0
38 -3 42 -42 60 -24 10 -46 18 -50 17 -5 -2 -8 3 -8 10 0 7 -12 20 -27 29 -36
21 -123 108 -154 153 -27 39 -34 42 -43 20z m71 -91 c-6 -6 -47 45 -47 58 0 5
12 -5 26 -22 15 -17 24 -33 21 -36z m-52 -36 c-6 -17 -4 -20 9 -15 10 4 19 1
23 -9 10 -26 -6 -28 -32 -4 -28 27 -33 50 -9 50 11 0 14 -6 9 -22z m225 -296
c0 -5 -13 -7 -30 -4 -16 2 -30 6 -30 8 0 2 14 4 30 4 17 0 30 -4 30 -8z"/>
<path d="M856 1874 c-7 -18 43 -79 102 -126 38 -30 48 -33 57 -18 3 6 -3 10
-14 10 -11 0 -23 5 -27 11 -8 13 16 30 31 22 5 -3 5 -1 -1 6 -9 10 -16 10 -32
0 -17 -10 -23 -10 -36 0 -9 8 -16 19 -16 27 0 7 -9 18 -20 24 -11 6 -18 15
-15 21 4 5 -2 9 -12 10 -10 0 -13 3 -5 6 14 5 16 23 3 23 -5 0 -12 -7 -15 -16z"/>
<path d="M680 1871 c0 -6 4 -12 8 -15 5 -3 9 1 9 9 0 8 -4 15 -9 15 -4 0 -8
-4 -8 -9z"/>
<path d="M2148 1875 c-3 -4 -2 -20 2 -36 5 -17 7 -36 4 -43 -3 -7 2 -13 11
-13 8 0 15 7 14 16 -1 27 -24 83 -31 76z"/>
<path d="M1063 1834 c27 -20 37 -35 37 -54 0 -43 -12 -90 -22 -90 -6 0 -8 7
-4 15 3 8 1 15 -4 15 -6 0 -10 -4 -10 -10 0 -5 -7 -10 -16 -10 -10 0 -14 6
-11 14 4 10 1 13 -9 9 -7 -3 -14 -8 -14 -12 0 -7 91 -54 99 -52 3 0 6 39 8 86
5 93 8 88 -67 110 -20 5 -18 2 13 -21z"/>
<path d="M1633 1833 c9 -2 25 -2 35 0 9 3 1 5 -18 5 -19 0 -27 -2 -17 -5z"/>
<path d="M697 1796 c-3 -8 1 -17 9 -20 8 -3 14 -13 12 -22 -2 -9 4 -18 14 -19
15 -3 14 1 -4 33 -25 46 -24 46 -31 28z"/>
<path d="M1184 1798 c-4 -6 -8 -34 -10 -64 -3 -67 20 -106 93 -148 56 -33 110
-80 130 -111 12 -18 12 -18 7 6 -4 19 -1 28 11 33 9 3 14 10 10 15 -3 5 -1 12
5 16 5 3 10 17 10 31 0 15 6 24 16 24 14 0 14 3 4 15 -10 12 -16 13 -27 4 -7
-7 -12 -17 -10 -23 5 -12 -30 -86 -39 -86 -4 0 -3 20 0 45 6 38 5 44 -9 39
-11 -5 -13 -10 -5 -19 8 -9 6 -14 -4 -18 -8 -3 -20 1 -26 9 -7 8 -19 14 -27
14 -7 0 -16 7 -19 15 -4 8 -15 15 -25 15 -11 0 -24 11 -31 25 -6 14 -17 25
-24 25 -15 0 -26 28 -17 43 4 7 6 26 4 43 -2 22 2 31 13 31 9 0 16 -6 16 -13
0 -11 5 -11 25 -2 30 14 26 19 -26 34 -26 8 -41 9 -45 2z"/>
<path d="M1070 1780 c0 -5 5 -10 10 -10 6 0 10 5 10 10 0 6 -4 10 -10 10 -5 0
-10 -4 -10 -10z"/>
<path d="M1920 1779 c0 -5 5 -7 10 -4 6 3 10 8 10 11 0 2 -4 4 -10 4 -5 0 -10
-5 -10 -11z"/>
<path d="M1301 1766 c12 -13 37 -18 93 -20 42 -2 82 -8 89 -14 8 -7 17 -6 30
2 16 13 25 32 10 23 -9 -5 -146 8 -203 19 -33 6 -34 5 -19 -10z"/>
<path d="M1749 1764 c-2 -19 2 -172 6 -231 3 -42 1 -63 -7 -63 -7 0 -7 -4 1
-13 8 -10 7 -17 -1 -25 -8 -8 -8 -15 1 -25 10 -12 5 -16 -31 -19 -24 -3 -46 0
-49 5 -4 5 -9 3 -12 -4 -4 -10 -6 -8 -6 4 -1 17 -2 17 -17 3 -32 -32 -91 -8
-77 32 3 6 -1 12 -7 12 -9 0 -10 3 -1 13 8 10 7 17 -1 25 -9 9 -9 12 1 12 9 0
7 5 -4 16 -9 9 -14 23 -11 30 3 7 0 16 -6 20 -8 5 -9 -9 -3 -52 4 -32 7 -78 7
-101 l-1 -43 42 0 c23 0 79 3 125 7 l83 6 -5 71 c-3 39 -8 127 -12 196 -5 108
-11 157 -15 124z"/>
<path d="M2163 1740 c0 -17 3 -26 7 -20 4 7 10 -3 14 -20 9 -45 7 -58 -4 -40
-14 21 -12 3 2 -23 19 -36 11 -97 -17 -125 -14 -13 -25 -22 -25 -18 0 4 -7 0
-16 -9 -15 -14 -17 -14 -31 2 -8 10 -12 13 -9 7 7 -15 -30 -48 -43 -39 -6 3
-11 1 -11 -4 0 -6 -5 -11 -11 -11 -5 0 -7 4 -4 10 3 6 -1 7 -9 4 -9 -3 -16
-10 -16 -15 0 -14 -28 -11 -33 4 -4 7 -6 6 -6 -4 -1 -12 -12 -18 -36 -21 -19
-2 -39 -2 -43 1 -15 10 -14 91 0 91 10 0 10 2 -1 9 -8 5 -12 18 -8 30 3 11 -1
25 -9 32 -10 8 -14 8 -14 0 0 -6 6 -11 13 -11 8 0 8 -3 1 -8 -5 -4 -11 -46
-12 -93 l-2 -86 62 14 c77 17 185 53 257 84 l54 24 -6 95 c-9 124 -17 170 -32
170 -6 0 -12 -13 -12 -30z"/>
<path d="M1256 1744 c-5 -14 -4 -15 9 -4 17 14 19 20 6 20 -5 0 -12 -7 -15
-16z"/>
<path d="M1605 1750 c-33 -3 -55 -7 -50 -11 6 -3 30 -4 55 -2 25 2 53 3 63 4
9 0 17 2 17 4 0 8 -30 10 -85 5z"/>
<path d="M1330 1730 c0 -6 7 -10 15 -10 8 0 15 2 15 4 0 2 -7 6 -15 10 -8 3
-15 1 -15 -4z"/>
<path d="M1302 1710 c7 -10 14 -18 15 -16 6 6 -9 36 -18 36 -5 0 -4 -9 3 -20z"/>
<path d="M740 1710 c-13 -8 -13 -10 2 -10 9 0 25 -11 36 -25 11 -14 25 -25 31
-25 6 0 8 -8 5 -17 -5 -15 -4 -16 5 -3 10 13 14 12 30 -7 10 -12 21 -20 24
-17 3 3 12 2 19 -2 7 -5 20 -9 28 -9 8 0 14 -6 12 -14 -3 -12 0 -12 12 -2 10
8 16 9 21 1 3 -6 11 -8 16 -4 16 9 1 21 -35 28 -44 8 -122 51 -161 87 -22 21
-34 26 -45 19z"/>
<path d="M1835 1700 c-3 -5 -1 -10 4 -10 6 0 11 5 11 10 0 6 -2 10 -4 10 -3 0
-8 -4 -11 -10z"/>
<path d="M1423 1664 c-12 -14 -20 -18 -25 -10 -5 6 -8 1 -8 -13 l0 -24 23 21
c32 30 66 35 116 17 53 -18 56 -19 42 -1 -12 14 -56 27 -103 29 -16 1 -34 -6
-45 -19z"/>
<path d="M746 1667 c3 -10 9 -15 12 -12 3 3 0 11 -7 18 -10 9 -11 8 -5 -6z"/>
<path d="M2015 1650 c3 -5 8 -10 11 -10 2 0 4 5 4 10 0 6 -5 10 -11 10 -5 0
-7 -4 -4 -10z"/>
<path d="M1490 1616 c0 -24 2 -26 21 -16 11 7 19 13 17 14 -1 1 -11 8 -20 15
-16 12 -18 11 -18 -13z"/>
<path d="M1840 1618 c0 -12 3 -17 8 -12 4 5 11 12 15 15 5 3 2 9 -7 12 -12 5
-16 0 -16 -15z"/>
<path d="M615 1610 c3 -5 8 -10 11 -10 2 0 4 5 4 10 0 6 -5 10 -11 10 -5 0 -7
-4 -4 -10z"/>
<path d="M1545 1600 c-3 -6 1 -7 9 -4 18 7 21 14 7 14 -6 0 -13 -4 -16 -10z"/>
<path d="M665 1590 c-4 -6 -11 -7 -17 -4 -7 4 -8 2 -4 -5 6 -9 11 -9 22 0 14
11 18 19 10 19 -3 0 -8 -5 -11 -10z"/>
<path d="M701 1584 c0 -11 3 -14 6 -6 3 7 2 16 -1 19 -3 4 -6 -2 -5 -13z"/>
<path d="M1167 1498 c3 -57 8 -105 10 -108 3 -3 13 6 24 19 17 20 17 25 5 35
-25 18 -29 135 -5 120 5 -3 7 -10 3 -15 -7 -13 15 -41 27 -33 5 3 9 10 9 15 0
6 -5 7 -12 3 -7 -4 -8 -3 -4 4 8 13 36 5 33 -10 -1 -6 3 -12 9 -15 7 -2 11 4
10 14 -1 15 -84 71 -108 73 -4 0 -4 -46 -1 -102z"/>
<path d="M991 1568 c-11 -17 -10 -18 7 -9 11 6 22 7 26 4 3 -3 6 -2 6 4 0 20
-26 21 -39 1z"/>
<path d="M720 1549 c0 -5 5 -7 10 -4 6 3 10 8 10 11 0 2 -4 4 -10 4 -5 0 -10
-5 -10 -11z"/>
<path d="M645 1539 c-4 -6 -5 -12 -2 -15 2 -3 7 2 10 11 7 17 1 20 -8 4z"/>
<path d="M1480 1510 c0 -11 5 -20 10 -20 6 0 10 9 10 20 0 11 -4 20 -10 20 -5
0 -10 -9 -10 -20z"/>
<path d="M1600 1509 c0 -5 5 -7 10 -4 6 3 10 8 10 11 0 2 -4 4 -10 4 -5 0 -10
-5 -10 -11z"/>
<path d="M744 1486 c0 -14 3 -24 7 -23 4 1 18 -11 33 -26 14 -15 26 -25 26
-22 0 3 10 -1 23 -9 12 -8 37 -17 55 -21 26 -5 32 -11 27 -23 -5 -13 -4 -14 6
-5 7 7 25 10 43 7 18 -4 26 -2 19 3 -7 5 2 8 25 9 20 0 46 3 57 8 20 8 20 8 0
16 -11 4 -56 5 -100 3 -59 -4 -90 -1 -116 11 -35 15 -89 68 -89 87 0 5 -4 9
-8 9 -4 0 -8 -11 -8 -24z"/>
<path d="M1286 1495 c-3 -9 0 -15 10 -15 9 0 24 -10 34 -22 17 -21 17 -23 -4
-38 -11 -9 -29 -19 -38 -23 -10 -3 -18 -11 -18 -17 0 -17 21 -11 41 13 10 12
18 17 19 10 0 -6 -6 -15 -12 -20 -19 -11 33 -20 120 -22 l73 -1 -7 58 c-10 83
-19 87 -28 12 -2 -25 -5 -46 -5 -47 -2 -8 -61 -1 -66 7 -4 7 -12 7 -25 0 -25
-14 -28 -13 -40 10 -7 14 -7 20 0 20 5 0 10 -8 10 -17 0 -14 2 -15 9 -4 10 16
3 51 -12 51 -6 0 -8 3 -4 6 5 5 -39 54 -48 54 -2 0 -5 -7 -9 -15z"/>
<path d="M1200 1469 c0 -5 5 -7 10 -4 6 3 10 8 10 11 0 2 -4 4 -10 4 -5 0 -10
-5 -10 -11z"/>
<path d="M1380 1445 c0 -5 5 -17 10 -25 5 -8 10 -10 10 -5 0 6 -5 17 -10 25
-5 8 -10 11 -10 5z"/>
<path d="M1237 1416 c-32 -28 -34 -36 -7 -36 13 0 24 10 31 26 13 36 8 38 -24
10z"/>
<path d="M1090 1420 c-13 -8 -12 -10 3 -10 9 0 20 0 24 -1 4 0 9 4 11 10 5 14
-18 14 -38 1z"/>
<path d="M1605 1400 c3 -5 8 -10 11 -10 2 0 4 5 4 10 0 6 -5 10 -11 10 -5 0
-7 -4 -4 -10z"/>
<path d="M1085 1370 c-3 -5 -4 -14 -1 -18 2 -4 -4 -13 -15 -20 -21 -14 -26 -3
-6 17 10 11 9 13 -4 8 -9 -3 -37 -9 -63 -12 -41 -6 -44 -9 -29 -20 14 -10 19
-10 31 1 15 16 42 19 42 5 0 -5 -6 -12 -12 -15 -7 -3 0 -3 17 -1 62 9 114 44
68 46 -15 0 -15 2 2 9 19 8 19 9 -2 9 -12 1 -25 -3 -28 -9z"/>
<path d="M750 1360 c-9 -6 -10 -10 -3 -10 6 0 15 5 18 10 8 12 4 12 -15 0z"/>
<path d="M677 1341 c-4 -17 -3 -21 5 -13 5 5 8 16 6 23 -3 8 -7 3 -11 -10z"/>
<path d="M1172 1349 c2 -7 10 -15 17 -17 8 -3 12 1 9 9 -2 7 -10 15 -17 17 -8
3 -12 -1 -9 -9z"/>
<path d="M1207 1332 c-17 -19 -24 -72 -9 -72 16 0 30 23 25 39 -4 14 -3 14 6
1 8 -12 11 -12 17 4 4 10 1 23 -8 32 -13 13 -16 12 -31 -4z"/>
<path d="M860 1320 c-9 -6 -10 -10 -3 -10 6 0 15 5 18 10 8 12 4 12 -15 0z"/>
<path d="M1105 1309 c-16 -10 -38 -16 -47 -13 -22 7 -24 -12 -2 -20 26 -10 46
-7 38 6 -4 7 -3 8 4 4 16 -9 52 11 52 29 0 19 -8 18 -45 -6z"/>
<path d="M1270 1310 c0 -10 -16 -32 -35 -47 -29 -23 -46 -53 -31 -53 13 0 106
101 101 110 -11 17 -35 11 -35 -10z"/>
<path d="M1320 1295 c-5 -14 -26 -35 -46 -47 -46 -27 -73 -88 -38 -88 11 0 15
8 12 27 -2 21 3 30 26 43 17 8 40 25 52 38 17 18 31 22 61 20 57 -5 64 -16 28
-55 -29 -32 -75 -52 -75 -32 0 5 -8 9 -17 8 -11 0 -13 -3 -5 -6 19 -8 14 -23
-8 -23 -11 0 -20 -7 -20 -15 0 -21 -34 -37 -48 -23 -9 9 -12 9 -12 1 0 -6 -3
-20 -7 -30 -6 -15 -4 -16 8 -6 8 7 34 15 57 19 23 4 45 11 48 16 4 6 -2 7 -15
3 -27 -8 -27 6 -1 23 14 8 26 9 37 3 14 -7 28 2 70 47 29 30 53 59 53 64 0 11
-15 16 -79 23 -29 3 -58 8 -62 11 -5 3 -13 -6 -19 -21z"/>
<path d="M678 1293 c7 -3 16 -2 19 1 4 3 -2 6 -13 5 -11 0 -14 -3 -6 -6z"/>
<path d="M1007 1286 c-4 -10 -1 -13 9 -9 15 6 19 23 5 23 -5 0 -11 -7 -14 -14z"/>
<path d="M1499 1267 c-6 -12 -23 -34 -37 -49 -13 -15 -22 -33 -19 -41 3 -8 0
-20 -6 -26 -7 -7 -7 -11 -1 -11 6 0 16 12 22 26 7 14 16 23 21 19 5 -3 12 -1
15 4 4 5 0 11 -9 13 -10 2 -12 7 -5 18 8 12 11 13 19 1 6 -9 11 -10 15 -2 4 6
2 11 -4 11 -6 0 -8 5 -5 10 4 6 10 8 15 5 5 -3 12 0 16 6 5 8 3 9 -7 4 -8 -5
-11 -4 -6 1 12 13 80 12 90 -1 6 -7 10 -6 14 3 8 20 26 14 20 -8 -3 -11 -1
-18 4 -14 5 3 9 12 9 20 0 11 4 13 17 5 11 -5 26 -5 41 0 14 5 26 8 28 7 1 -2
5 -25 8 -51 4 -34 3 -47 -6 -47 -10 0 -9 -3 1 -9 9 -6 12 -19 7 -42 -10 -55
-12 -127 -3 -122 5 3 7 -3 5 -13 -2 -12 -12 -19 -25 -19 -12 0 -24 -3 -28 -7
-3 -3 -18 -4 -33 -2 -30 5 -172 14 -214 14 -20 0 -28 5 -28 17 0 13 -2 15 -8
5 -5 -7 -16 -10 -25 -6 -9 3 -17 2 -17 -4 0 -10 51 -24 132 -37 37 -6 258 -16
258 -12 1 1 3 81 7 177 l5 175 -136 2 c-130 1 -137 0 -147 -20z"/>
<path d="M1110 1258 l-35 -20 34 6 c18 3 37 6 42 6 5 0 9 7 9 15 0 19 -7 18
-50 -7z"/>
<path d="M1010 1260 c-9 -6 -10 -10 -3 -10 6 0 15 5 18 10 8 12 4 12 -15 0z"/>
<path d="M1355 1261 c-3 -5 -1 -12 5 -16 5 -3 10 1 10 9 0 18 -6 21 -15 7z"/>
<path d="M1860 1239 c0 -5 5 -7 10 -4 6 3 10 8 10 11 0 2 -4 4 -10 4 -5 0 -10
-5 -10 -11z"/>
<path d="M1140 1229 c-13 -9 -13 -10 2 -6 9 3 19 1 21 -6 5 -16 -3 -47 -14
-47 -4 0 -20 -5 -36 -12 -15 -6 -35 -12 -44 -14 -8 -2 -28 -10 -44 -18 -25
-13 -31 -13 -45 -1 -10 9 -20 11 -30 5 -12 -8 -10 -10 10 -11 20 -1 18 -3 -10
-9 -19 -5 -36 -5 -38 -1 -3 10 -52 1 -52 -9 0 -12 138 -5 190 10 56 15 140 57
140 70 0 14 -22 60 -29 60 -3 0 -13 -5 -21 -11z"/>
<path d="M1005 1220 c-3 -6 1 -7 9 -4 18 7 21 14 7 14 -6 0 -13 -4 -16 -10z"/>
<path d="M1715 1199 c-10 -30 -2 -32 12 -3 6 13 7 24 3 24 -5 0 -12 -9 -15
-21z"/>
<path d="M2100 1215 c0 -5 5 -17 10 -25 5 -8 10 -10 10 -5 0 6 -5 17 -10 25
-5 8 -10 11 -10 5z"/>
<path d="M1105 1201 c-3 -5 -1 -12 5 -16 5 -3 10 1 10 9 0 18 -6 21 -15 7z"/>
<path d="M1065 1189 c-11 -17 1 -21 15 -4 8 9 8 15 2 15 -6 0 -14 -5 -17 -11z"/>
<path d="M1505 1171 c-3 -5 -2 -12 3 -15 5 -3 9 1 9 9 0 17 -3 19 -12 6z"/>
<path d="M1395 1156 c-11 -7 -38 -23 -60 -35 -26 -14 -33 -21 -20 -21 19 0 19
0 -1 -15 -16 -12 -17 -14 -2 -15 9 0 25 11 36 25 11 13 31 30 46 36 14 7 26
18 26 26 0 16 -1 16 -25 -1z"/>
<path d="M1700 1146 c0 -2 7 -6 15 -10 8 -3 15 -1 15 4 0 6 -7 10 -15 10 -8 0
-15 -2 -15 -4z"/>
<path d="M835 1130 c3 -5 8 -10 11 -10 2 0 4 5 4 10 0 6 -5 10 -11 10 -5 0 -7
-4 -4 -10z"/>
<path d="M780 1100 c-9 -6 -10 -10 -3 -10 6 0 15 5 18 10 8 12 4 12 -15 0z"/>
<path d="M1268 1080 c-26 -24 -22 -35 4 -10 12 11 20 22 17 24 -2 2 -12 -4
-21 -14z"/>
<path d="M1438 1077 c-3 -19 -2 -25 4 -19 6 6 8 18 6 28 -3 14 -5 12 -10 -9z"/>
<path d="M2083 1085 c7 -7 14 -10 17 -6 3 3 9 9 13 12 4 4 -3 7 -17 7 -19 0
-22 -3 -13 -13z"/>
<path d="M839 1078 c7 -10 10 -18 5 -18 -5 0 8 -11 28 -25 38 -26 63 -31 72
-16 7 11 -22 23 -36 15 -5 -3 -18 2 -29 12 -15 14 -17 20 -7 27 10 6 9 7 -3 4
-9 -3 -23 0 -30 6 -11 10 -11 9 0 -5z"/>
<path d="M1496 1065 c-3 -8 -1 -15 4 -15 6 0 10 7 10 15 0 8 -2 15 -4 15 -2 0
-6 -7 -10 -15z"/>
<path d="M1167 1031 c-18 -20 -45 -57 -60 -82 -24 -40 -25 -46 -9 -46 9 0 20
5 24 11 4 6 8 -6 8 -26 0 -27 -4 -38 -15 -38 -8 0 -15 -5 -15 -10 0 -7 6 -7
20 0 21 11 23 20 20 82 -2 41 43 128 65 128 8 0 16 4 19 8 3 5 -1 9 -9 9 -8 0
-30 -16 -48 -36z"/>
<path d="M1550 1060 c0 -5 5 -10 11 -10 5 0 7 5 4 10 -3 6 -8 10 -11 10 -2 0
-4 -4 -4 -10z"/>
<path d="M2000 1059 c0 -5 5 -7 10 -4 6 3 10 8 10 11 0 2 -4 4 -10 4 -5 0 -10
-5 -10 -11z"/>
<path d="M1350 1035 c0 -8 2 -15 4 -15 2 0 6 7 10 15 3 8 1 15 -4 15 -6 0 -10
-7 -10 -15z"/>
<path d="M1177 983 c-17 -41 -21 -113 -6 -113 5 0 7 11 5 25 -3 13 0 27 5 30
5 4 9 15 9 25 0 14 5 18 18 13 15 -5 14 -4 -2 9 -17 14 -17 15 -2 21 10 4 14
11 11 17 -11 18 -22 11 -38 -27z"/>
<path d="M1525 991 c-3 -5 -1 -12 5 -16 5 -3 10 1 10 9 0 18 -6 21 -15 7z"/>
<path d="M1334 949 c-4 -7 -3 -10 3 -6 6 4 27 -3 49 -13 21 -11 44 -20 52 -20
7 0 11 -4 7 -9 -3 -5 -1 -12 5 -16 5 -3 10 -2 10 3 0 11 43 10 52 -2 3 -5 22
-9 42 -9 19 0 33 -4 31 -8 -3 -4 2 -10 11 -13 8 -3 12 -2 9 4 -9 14 39 12 53
-2 9 -9 12 -9 12 1 0 10 3 11 14 2 10 -9 15 -9 18 -1 2 8 11 8 30 1 20 -7 28
-7 32 4 5 14 -20 29 -35 20 -21 -14 -282 36 -371 70 -9 4 -19 1 -24 -6z"/>
<path d="M993 925 c-9 -24 1 -27 15 -5 8 13 8 20 2 20 -6 0 -13 -7 -17 -15z"/>
<path d="M1230 931 c0 -8 -6 -11 -16 -7 -8 3 -13 2 -9 -3 3 -5 -1 -12 -7 -14
-7 -3 -8 -6 -2 -6 16 -1 50 27 41 35 -4 4 -7 2 -7 -5z"/>
<path d="M1060 891 c0 -5 5 -13 10 -16 6 -3 10 -2 10 4 0 5 -4 13 -10 16 -5 3
-10 2 -10 -4z"/>
<path d="M1495 850 c-3 -6 1 -7 9 -4 18 7 21 14 7 14 -6 0 -13 -4 -16 -10z"/>
<path d="M1248 833 c7 -3 16 -2 19 1 4 3 -2 6 -13 5 -11 0 -14 -3 -6 -6z"/>
<path d="M1765 830 c3 -5 8 -10 11 -10 2 0 4 5 4 10 0 6 -5 10 -11 10 -5 0 -7
-4 -4 -10z"/>
<path d="M1931 2494 c-12 -19 -21 -39 -21 -45 0 -15 18 -10 29 9 9 14 10 14
11 1 0 -8 7 -24 16 -35 15 -18 15 -18 10 7 -5 21 -1 28 14 32 28 7 25 22 -9
46 l-29 21 -21 -36z m49 -9 c0 -8 -4 -15 -9 -15 -13 0 -22 16 -14 24 11 11 23
6 23 -9z"/>
<path d="M2036 2456 c3 -7 -7 -23 -23 -36 -25 -19 -26 -23 -11 -31 28 -15 31
-15 34 4 3 24 24 48 35 41 17 -10 9 9 -8 22 -23 17 -34 17 -27 0z"/>
<path d="M811 2439 l-23 -19 26 -35 c26 -34 28 -34 51 -19 24 16 33 34 17 34
-4 0 -13 -5 -20 -12 -6 -6 -15 -9 -19 -5 -4 4 -1 13 5 19 18 18 15 33 -3 18
-9 -7 -19 -10 -23 -6 -4 4 1 14 11 21 10 7 15 15 10 18 -4 3 -19 -3 -32 -14z"/>
<path d="M2075 2390 l-29 -30 22 -22 c24 -24 43 -18 22 7 -15 19 -5 34 12 17
20 -20 32 -13 13 8 -19 21 -7 28 13 8 20 -20 26 1 7 22 -23 26 -26 26 -60 -10z"/>
<path d="M757 2394 c-3 -4 0 -19 9 -35 17 -33 13 -35 -20 -13 -16 9 -26 11
-30 5 -4 -6 12 -20 35 -31 54 -28 67 -16 40 39 -23 43 -24 45 -34 35z"/>
<path d="M2144 2339 c-3 -6 -1 -16 5 -22 6 -6 11 -18 11 -26 -1 -12 -5 -10
-20 7 -10 12 -21 18 -25 13 -6 -11 29 -51 44 -51 17 0 30 25 21 40 -6 8 -10
22 -10 30 1 11 6 9 19 -7 10 -12 21 -19 25 -16 10 10 -25 43 -45 43 -10 0 -21
-5 -25 -11z"/>
<path d="M677 2312 c-21 -23 -22 -36 -3 -29 13 5 46 -21 46 -37 0 -4 -10 -16
-22 -26 -23 -18 -24 -18 -49 7 -17 15 -29 21 -33 14 -4 -6 8 -24 26 -40 l33
-30 42 47 c44 49 53 68 29 59 -14 -6 -40 17 -47 41 -3 10 -9 9 -22 -6z"/>
<path d="M2253 2254 c9 -10 -35 -42 -50 -37 -20 8 -15 -12 7 -32 18 -16 20
-17 20 -1 0 9 12 22 28 28 15 7 29 13 31 15 7 4 -21 33 -32 33 -6 0 -8 -3 -4
-6z"/>
<path d="M574 2175 c-9 -14 -15 -27 -13 -29 2 -1 20 -12 39 -24 l35 -21 17 30
c18 30 10 40 -12 14 -7 -8 -16 -12 -22 -9 -5 3 -4 12 3 20 6 8 9 17 5 21 -3 4
-13 -2 -21 -13 -11 -15 -14 -16 -15 -3 0 8 5 20 12 27 9 9 9 12 0 12 -6 0 -19
-11 -28 -25z"/>
<path d="M2272 2179 c-17 -12 -32 -28 -32 -36 0 -11 7 -10 30 7 l30 22 -17
-36 c-9 -20 -14 -39 -10 -42 7 -8 77 34 77 47 0 14 -16 11 -30 -6 -18 -22 -23
-12 -9 19 18 39 1 49 -39 25z"/>
<path d="M526 2088 c-9 -12 -16 -26 -16 -29 0 -9 70 -53 74 -48 9 10 26 49 26
58 0 16 -30 41 -50 41 -10 0 -26 -10 -34 -22z m54 -13 c18 -22 3 -36 -25 -23
-19 9 -22 14 -14 25 15 17 24 17 39 -2z"/>
<path d="M2354 2095 c3 -10 -5 -20 -24 -30 -31 -16 -40 -35 -17 -35 7 0 23 7
35 16 20 14 23 14 28 0 3 -9 10 -13 15 -11 10 7 -21 75 -34 75 -5 0 -7 -7 -3
-15z"/>
<path d="M2368 2003 c-21 -8 -38 -19 -38 -25 0 -16 20 -48 31 -48 6 0 6 7 -1
19 -7 13 -7 22 0 26 6 3 13 -1 16 -9 9 -24 23 -19 17 7 -4 21 -4 21 11 3 21
-26 31 -14 14 17 -13 24 -14 25 -50 10z"/>
<path d="M540 1944 c0 -16 -19 -15 -65 3 -12 4 -16 2 -13 -7 4 -12 77 -44 84
-38 10 11 14 58 5 58 -6 0 -11 -7 -11 -16z"/>
<path d="M2389 1916 c-38 -12 -44 -38 -6 -28 21 5 21 4 5 -15 -19 -21 -24 -43
-9 -43 5 0 12 7 15 16 4 10 13 13 26 9 24 -8 35 13 26 50 -7 28 -6 28 -57 11z
m42 -29 c-1 -12 -15 -9 -19 4 -3 6 1 10 8 8 6 -3 11 -8 11 -12z"/>
<path d="M483 1883 c-56 -5 -57 -30 -3 -61 31 -17 40 -19 40 -8 0 8 -5 16 -12
18 -8 3 -5 11 10 23 22 19 29 37 15 33 -5 -1 -27 -3 -50 -5z m17 -27 c0 -11
-19 -15 -25 -6 -3 5 1 10 9 10 9 0 16 -2 16 -4z"/>
<path d="M2398 1813 c-33 -8 -19 -26 15 -19 l32 6 -27 -25 c-34 -30 -37 -50
-5 -41 12 3 32 6 45 6 12 0 22 6 22 14 0 9 -9 12 -27 9 l-28 -5 23 17 c45 33
16 55 -50 38z"/>
<path d="M427 1793 c-11 -11 -8 -48 5 -61 29 -29 78 -7 78 35 0 13 -5 23 -11
23 -6 0 -9 -6 -6 -14 8 -19 -18 -40 -39 -32 -11 4 -15 14 -12 31 5 24 -2 32
-15 18z"/>
<path d="M2390 1704 c0 -3 7 -12 15 -21 12 -12 13 -18 4 -29 -19 -23 -6 -25
39 -7 52 20 53 36 3 51 -42 13 -61 15 -61 6z m70 -28 c0 -2 -7 -6 -15 -10 -8
-3 -15 -1 -15 4 0 6 7 10 15 10 8 0 15 -2 15 -4z"/>
<path d="M410 1675 c0 -14 5 -25 10 -25 6 0 10 4 10 9 0 11 39 3 58 -12 9 -7
12 -1 12 24 0 21 -3 29 -8 22 -6 -10 -17 -10 -42 -3 -19 6 -36 10 -37 10 -2 0
-3 -11 -3 -25z"/>
<path d="M485 1610 c6 -18 2 -20 -34 -20 -23 0 -41 -4 -41 -10 0 -5 20 -10 45
-10 43 0 45 1 45 30 0 17 -5 30 -11 30 -6 0 -8 -9 -4 -20z"/>
<path d="M2470 1605 c0 -10 -11 -15 -35 -15 -19 0 -35 -4 -35 -10 0 -5 16 -10
35 -10 24 0 35 -5 35 -15 0 -8 5 -15 10 -15 6 0 10 18 10 40 0 22 -4 40 -10
40 -5 0 -10 -7 -10 -15z"/>
<path d="M490 1528 c0 -16 -4 -28 -10 -28 -5 0 -10 9 -10 20 0 11 -4 20 -10
20 -5 0 -10 -9 -10 -20 0 -11 -4 -20 -10 -20 -5 0 -10 9 -10 20 0 11 -4 20
-10 20 -7 0 -4 -60 4 -66 1 0 20 1 44 4 35 3 42 8 42 26 0 11 -5 28 -10 36 -8
12 -10 9 -10 -12z"/>
<path d="M2390 1505 c0 -22 3 -24 29 -19 16 4 32 1 35 -5 12 -19 26 -12 26 12
0 20 -4 23 -35 19 -21 -3 -35 0 -35 7 0 6 -4 11 -10 11 -5 0 -10 -11 -10 -25z"/>
<path d="M479 1453 c-11 -3 -15 -11 -12 -24 7 -23 23 -25 23 -2 0 13 3 14 12
5 10 -9 9 -16 -4 -28 -23 -23 -48 -11 -48 23 0 19 -3 24 -11 16 -15 -15 -8
-54 12 -66 9 -5 28 -7 43 -3 24 6 27 11 24 43 -3 37 -10 44 -39 36z"/>
<path d="M2390 1440 c-11 -11 -20 -24 -20 -30 0 -15 38 -50 53 -50 18 0 47 32
47 53 0 15 -35 47 -52 47 -5 0 -17 -9 -28 -20z m58 -32 c3 -13 -3 -18 -22 -18
-27 0 -41 14 -31 31 10 16 49 6 53 -13z"/>
<path d="M487 1347 c-20 -6 -36 -15 -33 -21 4 -12 10 -12 41 0 19 7 18 5 -2
-18 -22 -23 -30 -48 -17 -48 4 0 24 5 45 12 47 14 52 32 7 23 l-33 -7 23 24
c21 24 30 49 15 47 -5 -1 -25 -6 -46 -12z"/>
<path d="M2360 1345 c0 -7 12 -16 28 -20 l27 -8 -37 -9 c-21 -6 -38 -14 -38
-19 0 -13 70 -40 83 -32 7 4 -1 12 -18 19 l-29 12 31 6 c48 11 47 30 -3 48
-34 12 -44 13 -44 3z"/>
<path d="M531 1236 c-18 -19 -30 -39 -27 -45 8 -12 39 -14 74 -5 25 7 30 24 7
24 -15 0 -19 10 -16 43 3 23 0 22 -38 -17z m29 -26 c0 -5 -7 -10 -16 -10 -8 0
-12 5 -9 10 3 6 10 10 16 10 5 0 9 -4 9 -10z"/>
<path d="M2323 1233 c1 -17 -3 -27 -10 -26 -6 1 -14 -4 -17 -12 -4 -12 5 -15
43 -15 26 0 51 3 55 7 7 7 -52 73 -65 73 -4 0 -7 -12 -6 -27z m42 -23 c3 -5
-1 -10 -9 -10 -9 0 -16 5 -16 10 0 6 4 10 9 10 6 0 13 -4 16 -10z"/>
<path d="M2267 1140 c-10 -16 -14 -30 -8 -30 5 0 14 8 19 17 9 16 11 16 36 0
28 -19 46 -22 46 -8 0 7 -63 51 -73 51 -2 0 -11 -13 -20 -30z"/>
<path d="M595 1153 c-54 -10 -65 -14 -60 -23 3 -5 20 -7 38 -3 l32 6 -24 -26
c-12 -14 -20 -31 -16 -37 4 -6 18 3 36 26 39 49 38 65 -6 57z"/>
<path d="M647 1094 c-4 -4 -2 -13 5 -21 14 -17 2 -31 -14 -15 -7 7 -16 12 -22
12 -6 0 -5 -5 2 -12 7 -7 12 -19 12 -27 0 -12 -6 -9 -19 8 -10 13 -21 20 -24
15 -3 -5 3 -20 14 -32 l19 -24 35 22 c19 12 35 25 35 28 -1 15 -36 53 -43 46z"/>
<path d="M403 993 c2 -27 9 -68 15 -93 6 -25 13 -58 17 -73 3 -17 10 -25 17
-21 7 5 8 3 3 -6 -6 -10 -31 -11 -106 -6 -55 3 -99 4 -99 0 0 -13 23 -47 50
-72 76 -71 96 -89 113 -95 25 -9 21 8 -6 30 -13 10 -22 24 -19 32 3 8 0 11 -6
7 -6 -3 -13 -2 -17 4 -4 6 -10 8 -14 6 -13 -8 -32 10 -36 36 -4 20 0 27 17 31
12 4 25 2 28 -4 11 -16 48 -18 61 -3 6 8 17 14 25 14 18 0 29 41 14 50 -15 9
-5 60 11 60 6 0 7 5 4 10 -3 6 -1 10 4 10 6 0 11 -6 11 -14 0 -9 7 -12 19 -9
19 5 89 -28 101 -47 7 -12 40 -3 40 11 0 5 -12 14 -27 20 -75 30 -99 43 -139
75 -24 20 -43 39 -42 42 3 10 -26 52 -35 52 -5 0 -7 -21 -4 -47z m55 -66 c2
-19 -1 -27 -12 -27 -11 0 -16 10 -16 31 0 38 24 35 28 -4z"/>
<path d="M2560 1008 c-14 -5 -33 -20 -43 -33 l-17 -24 32 2 33 2 0 -59 c0 -60
1 -61 54 -86 8 -3 21 -17 30 -30 15 -22 15 -23 0 -18 -13 5 -16 2 -12 -13 7
-27 28 -24 42 7 10 22 9 29 -7 43 -10 9 -17 22 -15 29 3 8 -9 12 -42 12 -44 0
-47 1 -40 23 14 46 18 120 6 113 -6 -4 -11 -1 -11 8 0 8 6 16 13 19 6 2 10 7
7 9 -3 3 -16 1 -30 -4z"/>
<path d="M2440 926 c-24 -11 -43 -25 -42 -31 3 -15 42 -14 42 1 0 8 5 14 11
14 12 0 44 29 38 34 -2 2 -24 -6 -49 -18z"/>
<path d="M2328 879 c-10 -5 -18 -20 -18 -32 0 -25 41 -116 53 -117 12 0 8 18
-12 51 -19 31 -19 32 0 66 10 18 19 36 19 38 0 8 -24 5 -42 -6z"/>
<path d="M2446 861 c-3 -5 -21 -12 -41 -15 -35 -7 -58 -26 -31 -26 17 0 31
-34 20 -52 -4 -6 10 1 30 17 21 16 33 31 27 33 -13 4 -15 32 -2 32 5 0 11 -5
13 -12 5 -15 28 -1 28 18 0 15 -35 20 -44 5z"/>
<path d="M2715 852 c-18 -6 -19 -10 -9 -30 l12 -24 16 23 c26 38 22 44 -19 31z"/>
<path d="M2537 800 c54 -94 65 -110 75 -104 5 4 1 15 -11 28 -12 12 -21 28
-21 34 0 7 -4 12 -10 12 -5 0 -10 6 -10 13 0 8 -10 22 -22 33 l-22 19 21 -35z"/>
<path d="M540 805 c0 -18 12 -19 28 -3 8 8 10 5 6 -15 -2 -15 -1 -27 3 -27 5
0 20 -11 35 -25 l27 -25 3 33 c2 19 8 31 16 29 6 -1 12 2 12 6 0 9 -92 42
-116 42 -8 0 -14 -7 -14 -15z"/>
<path d="M2220 810 c0 -5 7 -10 15 -10 19 0 19 -24 0 -54 -15 -23 -15 -23 10
-19 31 6 33 -11 3 -31 -28 -20 -18 -20 27 -2 41 17 41 20 14 66 -29 49 -69 78
-69 50z"/>
<path d="M2477 799 c4 -15 3 -20 -5 -15 -20 12 -13 -9 7 -24 11 -7 17 -18 14
-22 -3 -5 3 -19 14 -30 10 -12 12 -18 5 -14 -10 6 -10 2 -1 -18 7 -14 17 -23
22 -19 6 4 8 0 4 -9 -3 -9 3 -24 14 -34 11 -10 17 -24 14 -31 -3 -9 0 -11 7
-7 8 5 9 2 5 -9 -3 -10 -2 -17 2 -17 5 0 7 -10 4 -21 -5 -19 -4 -20 14 -10 38
20 36 59 -4 99 -7 8 -11 18 -8 23 4 5 2 9 -2 9 -5 0 -24 31 -42 69 -35 74 -75
124 -64 80z"/>
<path d="M531 766 c-8 -9 -11 -19 -8 -22 3 -4 -3 -15 -13 -26 -10 -12 -22 -34
-26 -51 -3 -17 -11 -35 -16 -41 -5 -6 -17 -27 -26 -46 -10 -19 -22 -34 -28
-33 -17 3 -15 -56 3 -77 20 -24 48 -27 39 -5 -3 8 -9 22 -12 30 -5 11 -2 13
10 9 9 -3 16 -1 16 5 0 6 -4 11 -9 11 -15 0 -6 28 17 53 13 14 20 31 17 39 -4
10 2 22 17 32 12 9 19 16 14 16 -5 0 -1 11 8 26 10 15 16 40 14 61 -3 33 -4
35 -17 19z"/>
<path d="M2410 750 c-7 -18 -5 -49 3 -41 5 5 7 17 4 27 -3 11 -6 17 -7 14z"/>
<path d="M356 732 c-3 -6 -1 -14 5 -17 15 -10 25 3 12 16 -7 7 -13 7 -17 1z"/>
<path d="M2426 702 c-3 -5 6 -22 20 -37 14 -16 19 -25 10 -22 -8 3 -18 2 -21
-2 -3 -5 2 -12 11 -15 9 -4 14 -13 10 -22 -3 -8 -2 -12 4 -9 5 3 18 -14 29
-39 12 -24 26 -46 33 -48 8 -3 1 -16 -20 -38 -32 -31 -34 -32 -48 -14 -9 11
-13 14 -10 8 3 -6 -1 -20 -9 -30 -13 -17 -14 -18 -15 -1 0 9 -3 17 -8 17 -5 0
-51 86 -58 110 -9 32 -42 90 -51 90 -7 0 -13 7 -13 15 0 8 -6 12 -14 9 -12 -5
-11 -12 7 -42 12 -20 25 -38 29 -40 4 -2 8 -12 8 -21 0 -10 9 -30 21 -45 11
-14 17 -26 12 -26 -4 0 -3 -4 2 -8 16 -11 35 -60 35 -87 0 -14 4 -25 9 -25 8
0 61 38 71 51 3 3 19 13 36 22 50 25 60 44 39 67 -21 23 -42 57 -51 83 -3 9
-11 17 -16 17 -5 0 -8 6 -6 13 3 17 -38 81 -46 69z"/>
<path d="M2165 678 c-17 -10 -17 -11 1 -27 11 -9 37 -54 58 -101 21 -47 49
-106 63 -132 13 -27 21 -48 16 -48 -4 0 -1 -5 8 -10 18 -10 59 -2 59 11 0 6
-10 14 -22 19 -13 5 -17 9 -10 9 10 1 10 4 0 15 -7 8 -16 12 -20 9 -5 -2 -9 5
-9 16 -1 12 -3 26 -4 31 -1 6 -3 16 -4 23 -1 9 -4 8 -10 -2 -8 -13 -18 2 -27
42 -1 4 -3 10 -4 15 -2 4 -3 14 -4 22 -1 8 -7 15 -15 15 -8 0 -16 6 -19 14 -3
10 0 12 14 7 11 -4 5 5 -14 22 -28 25 -30 31 -16 36 9 4 14 9 10 13 -11 11
-31 11 -51 1z"/>
<path d="M595 650 c-4 -6 -3 -16 3 -22 13 -13 23 4 13 21 -7 10 -10 10 -16 1z"/>
<path d="M506 617 c3 -10 9 -15 12 -12 3 3 0 11 -7 18 -10 9 -11 8 -5 -6z"/>
<path d="M1868 617 c-35 -10 -54 -37 -25 -37 15 0 42 -103 27 -108 -5 -2 -10
-10 -10 -19 0 -12 8 -13 43 -8 23 4 45 9 49 11 12 8 -3 33 -16 28 -8 -3 -16
14 -23 52 -8 44 -7 57 3 61 12 5 8 34 -5 32 -3 -1 -23 -6 -43 -12z"/>
<path d="M2060 615 c0 -9 -9 -15 -22 -15 -22 -1 -22 -1 -4 -15 11 -8 16 -20
12 -30 -5 -13 -1 -15 15 -10 11 4 27 1 35 -6 13 -11 14 -9 9 14 -5 20 -3 28 9
33 22 9 10 23 -14 17 -14 -4 -20 0 -20 11 0 9 -4 16 -10 16 -5 0 -10 -7 -10
-15z"/>
<path d="M2154 593 c0 -10 10 -22 21 -27 19 -8 19 -9 -5 -15 -17 -5 -21 -9
-12 -15 6 -4 16 -5 21 -2 13 9 21 -20 9 -32 -6 -6 -17 -8 -24 -5 -8 3 -14 1
-14 -5 0 -11 25 -10 36 1 12 12 24 8 24 -8 0 -9 -9 -15 -25 -15 -14 0 -25 -5
-25 -11 0 -6 -7 -9 -15 -6 -8 4 -17 2 -20 -4 -4 -5 -10 -7 -15 -4 -4 3 -10 -2
-14 -10 -3 -8 -13 -15 -23 -15 -15 0 -16 2 -3 10 8 5 11 10 6 10 -5 0 -17 -6
-25 -14 -26 -22 -76 -35 -94 -24 -12 6 -17 5 -17 -5 0 -8 -11 -17 -25 -19 -14
-3 -25 -1 -25 4 0 5 -7 2 -16 -6 -15 -15 -28 -19 -66 -19 -10 0 -18 -4 -18 -8
0 -14 -50 -10 -50 4 -1 7 -5 6 -13 -5 -9 -11 -18 -14 -28 -7 -20 12 -32 11
-23 -2 5 -9 -1 -10 -20 -5 -14 3 -26 3 -26 -2 0 -12 -32 -12 -47 0 -7 5 -14 5
-18 -2 -11 -18 -134 -5 -151 17 -9 10 -13 13 -9 6 8 -17 -26 -32 -50 -23 -11
4 -25 5 -31 3 -6 -2 -17 3 -24 12 -7 8 -17 15 -23 15 -6 0 -2 -7 9 -15 18 -15
18 -15 -7 -10 -14 4 -33 7 -43 9 -11 1 -25 11 -34 22 -13 17 -14 17 -8 1 5
-15 2 -17 -17 -11 -12 4 -32 7 -44 6 -12 -1 -25 3 -28 8 -4 6 -11 8 -16 4 -16
-9 -70 6 -62 19 4 7 0 8 -11 4 -24 -10 -116 12 -123 29 -4 10 -9 11 -18 4 -6
-5 -15 -7 -18 -3 -4 3 -7 1 -7 -5 0 -6 19 -16 43 -23 23 -6 53 -15 67 -20 14
-5 36 -10 50 -13 14 -2 52 -11 86 -20 128 -33 246 -45 429 -42 99 2 200 8 225
14 25 6 74 16 110 22 104 19 348 100 378 125 1 1 -13 34 -33 74 -35 69 -54 89
-51 54z"/>
<path d="M990 585 c0 -10 -10 -15 -27 -15 -25 0 -26 -1 -8 -20 9 -10 15 -26
12 -35 -7 -17 8 -21 18 -5 4 7 13 6 26 -1 18 -9 20 -8 17 9 -2 10 3 26 11 35
12 15 11 17 -8 17 -12 0 -21 6 -21 15 0 8 -4 15 -10 15 -5 0 -10 -7 -10 -15z"/>
<path d="M1118 594 c-4 -3 -2 -14 4 -23 12 -20 2 -111 -13 -111 -5 0 -9 -6 -9
-14 0 -9 26 -18 78 -29 42 -8 78 -14 79 -14 0 1 4 19 8 40 6 30 4 37 -9 37 -9
0 -19 -7 -22 -15 -4 -9 -19 -15 -35 -15 -24 0 -29 4 -29 25 0 14 5 25 10 25 6
0 10 -7 10 -15 0 -20 16 -19 24 1 9 24 7 54 -4 54 -5 0 -10 -3 -10 -7 0 -5
-11 -13 -25 -20 -14 -6 -25 -7 -25 -2 0 5 5 9 10 9 6 0 15 11 20 24 7 19 14
23 31 19 12 -3 24 -14 26 -25 8 -29 30 -21 35 12 3 17 2 33 -1 35 -13 7 -147
16 -153 9z"/>
<path d="M1749 592 c-20 -2 -31 -15 -51 -60 l-25 -57 -34 53 c-20 31 -39 50
-47 47 -8 -3 -20 -5 -28 -5 -8 0 -14 -7 -14 -15 0 -8 7 -15 15 -15 10 0 15
-10 15 -32 0 -18 3 -43 6 -55 5 -17 2 -23 -10 -23 -10 0 -13 -6 -10 -15 8 -20
64 -20 64 -1 0 8 -4 18 -10 21 -5 3 -10 18 -10 33 0 25 3 23 31 -22 l31 -50
19 49 c24 63 39 78 39 39 0 -17 -5 -35 -12 -42 -19 -19 2 -30 45 -25 23 3 37
11 37 19 0 8 -6 14 -13 14 -8 0 -14 15 -15 38 -2 20 -5 45 -8 55 -4 11 0 17
10 17 9 0 16 6 16 14 0 19 -9 23 -41 18z"/>
<path d="M557 568 c-10 -11 -17 -22 -14 -24 6 -6 37 25 37 37 0 12 -2 11 -23
-13z"/>
<path d="M1330 565 c0 -8 7 -15 15 -15 12 0 15 -12 13 -60 -2 -40 -7 -60 -15
-60 -7 0 -13 -6 -13 -14 0 -20 115 -26 141 -8 26 18 42 82 28 119 -13 38 -45
53 -114 53 -42 0 -55 -4 -55 -15z m112 -32 c32 -29 17 -103 -22 -103 -18 0
-20 7 -20 60 0 64 9 73 42 43z"/>
<path d="M475 549 c-4 -6 -5 -12 -2 -15 2 -3 7 2 10 11 7 17 1 20 -8 4z"/>
<path d="M610 410 c0 -5 5 -10 11 -10 5 0 7 5 4 10 -3 6 -8 10 -11 10 -2 0 -4
-4 -4 -10z"/>
<path d="M816 393 c-6 -14 -5 -15 5 -6 7 7 10 15 7 18 -3 3 -9 -2 -12 -12z"/>
<path d="M1050 389 c0 -5 5 -7 10 -4 6 3 10 8 10 11 0 2 -4 4 -10 4 -5 0 -10
-5 -10 -11z"/>
<path d="M792 345 c-7 -15 -11 -30 -8 -32 7 -7 28 36 24 49 -2 6 -9 -2 -16
-17z"/>
<path d="M1459 353 c-13 -16 -12 -17 4 -4 16 13 21 21 13 21 -2 0 -10 -8 -17
-17z"/>
<path d="M218 13 c7 -3 16 -2 19 1 4 3 -2 6 -13 5 -11 0 -14 -3 -6 -6z"/>
<path d="M2968 13 c6 -2 18 -2 25 0 6 3 1 5 -13 5 -14 0 -19 -2 -12 -5z"/>
</g>
</svg>
